<?xml version="1.0" encoding="utf-8" standalone="no"?>
<!DOCTYPE svg PUBLIC "-//W3C//DTD SVG 1.1//EN"
  "http://www.w3.org/Graphics/SVG/1.1/DTD/svg11.dtd">
<svg xmlns:xlink="http://www.w3.org/1999/xlink" width="633.6pt" height="446.4pt" viewBox="0 0 633.6 446.4" xmlns="http://www.w3.org/2000/svg" version="1.1">
 <metadata>
  <rdf:RDF xmlns:dc="http://purl.org/dc/elements/1.1/" xmlns:cc="http://creativecommons.org/ns#" xmlns:rdf="http://www.w3.org/1999/02/22-rdf-syntax-ns#">
   <cc:Work>
    <dc:type rdf:resource="http://purl.org/dc/dcmitype/StillImage"/>
    <dc:date>2026-03-18T10:14:42.770001</dc:date>
    <dc:format>image/svg+xml</dc:format>
    <dc:creator>
     <cc:Agent>
      <dc:title>Matplotlib v3.10.8, https://matplotlib.org/</dc:title>
     </cc:Agent>
    </dc:creator>
   </cc:Work>
  </rdf:RDF>
 </metadata>
 <defs>
  <style type="text/css">*{stroke-linejoin: round; stroke-linecap: butt}</style>
 </defs>
 <g id="figure_1">
  <g id="patch_1">
   <path d="M 0 446.4 
L 633.6 446.4 
L 633.6 0 
L 0 0 
z
" style="fill: #0f1116"/>
  </g>
  <g id="axes_1">
   <g id="patch_2">
    <path d="M 41.278365 408.54351 
L 630.59976 408.54351 
L 630.59976 54.107717 
L 41.278365 54.107717 
z
" style="fill: #111318"/>
   </g>
   <g id="matplotlib.axis_1">
    <g id="xtick_1">
     <g id="line2d_1">
      <defs>
       <path id="m0162705548" d="M 0 0 
L 0 3.5 
" style="stroke: #e6e6e6; stroke-width: 0.8"/>
      </defs>
      <g>
       <use xlink:href="#m0162705548" x="68.065701" y="408.54351" style="fill: #e6e6e6; stroke: #e6e6e6; stroke-width: 0.8"/>
      </g>
     </g>
     <g id="text_1">
      <!-- n=1 -->
      <g style="fill: #e6e6e6" transform="translate(57.525857 427.641948) scale(0.1 -0.1)">
       <defs>
        <path id="DejaVuSans-6e" d="M 3513 2113 
L 3513 0 
L 2938 0 
L 2938 2094 
Q 2938 2591 2744 2837 
Q 2550 3084 2163 3084 
Q 1697 3084 1428 2787 
Q 1159 2491 1159 1978 
L 1159 0 
L 581 0 
L 581 3500 
L 1159 3500 
L 1159 2956 
Q 1366 3272 1645 3428 
Q 1925 3584 2291 3584 
Q 2894 3584 3203 3211 
Q 3513 2838 3513 2113 
z
" transform="scale(0.015625)"/>
        <path id="DejaVuSans-3d" d="M 678 2906 
L 4684 2906 
L 4684 2381 
L 678 2381 
L 678 2906 
z
M 678 1631 
L 4684 1631 
L 4684 1100 
L 678 1100 
L 678 1631 
z
" transform="scale(0.015625)"/>
        <path id="DejaVuSans-31" d="M 794 531 
L 1825 531 
L 1825 4091 
L 703 3866 
L 703 4441 
L 1819 4666 
L 2450 4666 
L 2450 531 
L 3481 531 
L 3481 0 
L 794 0 
L 794 531 
z
" transform="scale(0.015625)"/>
       </defs>
       <use xlink:href="#DejaVuSans-6e"/>
       <use xlink:href="#DejaVuSans-3d" transform="translate(63.378906 0)"/>
       <use xlink:href="#DejaVuSans-31" transform="translate(147.167969 0)"/>
      </g>
     </g>
    </g>
    <g id="xtick_2">
     <g id="line2d_2">
      <g>
       <use xlink:href="#m0162705548" x="116.769949" y="408.54351" style="fill: #e6e6e6; stroke: #e6e6e6; stroke-width: 0.8"/>
      </g>
     </g>
     <g id="text_2">
      <!-- n=10 -->
      <g style="fill: #e6e6e6" transform="translate(103.048855 427.641948) scale(0.1 -0.1)">
       <defs>
        <path id="DejaVuSans-30" d="M 2034 4250 
Q 1547 4250 1301 3770 
Q 1056 3291 1056 2328 
Q 1056 1369 1301 889 
Q 1547 409 2034 409 
Q 2525 409 2770 889 
Q 3016 1369 3016 2328 
Q 3016 3291 2770 3770 
Q 2525 4250 2034 4250 
z
M 2034 4750 
Q 2819 4750 3233 4129 
Q 3647 3509 3647 2328 
Q 3647 1150 3233 529 
Q 2819 -91 2034 -91 
Q 1250 -91 836 529 
Q 422 1150 422 2328 
Q 422 3509 836 4129 
Q 1250 4750 2034 4750 
z
" transform="scale(0.015625)"/>
       </defs>
       <use xlink:href="#DejaVuSans-6e"/>
       <use xlink:href="#DejaVuSans-3d" transform="translate(63.378906 0)"/>
       <use xlink:href="#DejaVuSans-31" transform="translate(147.167969 0)"/>
       <use xlink:href="#DejaVuSans-30" transform="translate(210.791016 0)"/>
      </g>
     </g>
    </g>
    <g id="xtick_3">
     <g id="line2d_3">
      <g>
       <use xlink:href="#m0162705548" x="603.812424" y="408.54351" style="fill: #e6e6e6; stroke: #e6e6e6; stroke-width: 0.8"/>
      </g>
     </g>
     <g id="text_3">
      <!-- n=100 -->
      <g style="fill: #e6e6e6" transform="translate(586.91008 427.641948) scale(0.1 -0.1)">
       <use xlink:href="#DejaVuSans-6e"/>
       <use xlink:href="#DejaVuSans-3d" transform="translate(63.378906 0)"/>
       <use xlink:href="#DejaVuSans-31" transform="translate(147.167969 0)"/>
       <use xlink:href="#DejaVuSans-30" transform="translate(210.791016 0)"/>
       <use xlink:href="#DejaVuSans-30" transform="translate(274.414062 0)"/>
      </g>
     </g>
    </g>
    <g id="text_4">
     <!-- batch size -->
     <g style="fill: #e6e6e6" transform="translate(310.539063 441.320073) scale(0.1 -0.1)">
      <defs>
       <path id="DejaVuSans-62" d="M 3116 1747 
Q 3116 2381 2855 2742 
Q 2594 3103 2138 3103 
Q 1681 3103 1420 2742 
Q 1159 2381 1159 1747 
Q 1159 1113 1420 752 
Q 1681 391 2138 391 
Q 2594 391 2855 752 
Q 3116 1113 3116 1747 
z
M 1159 2969 
Q 1341 3281 1617 3432 
Q 1894 3584 2278 3584 
Q 2916 3584 3314 3078 
Q 3713 2572 3713 1747 
Q 3713 922 3314 415 
Q 2916 -91 2278 -91 
Q 1894 -91 1617 61 
Q 1341 213 1159 525 
L 1159 0 
L 581 0 
L 581 4863 
L 1159 4863 
L 1159 2969 
z
" transform="scale(0.015625)"/>
       <path id="DejaVuSans-61" d="M 2194 1759 
Q 1497 1759 1228 1600 
Q 959 1441 959 1056 
Q 959 750 1161 570 
Q 1363 391 1709 391 
Q 2188 391 2477 730 
Q 2766 1069 2766 1631 
L 2766 1759 
L 2194 1759 
z
M 3341 1997 
L 3341 0 
L 2766 0 
L 2766 531 
Q 2569 213 2275 61 
Q 1981 -91 1556 -91 
Q 1019 -91 701 211 
Q 384 513 384 1019 
Q 384 1609 779 1909 
Q 1175 2209 1959 2209 
L 2766 2209 
L 2766 2266 
Q 2766 2663 2505 2880 
Q 2244 3097 1772 3097 
Q 1472 3097 1187 3025 
Q 903 2953 641 2809 
L 641 3341 
Q 956 3463 1253 3523 
Q 1550 3584 1831 3584 
Q 2591 3584 2966 3190 
Q 3341 2797 3341 1997 
z
" transform="scale(0.015625)"/>
       <path id="DejaVuSans-74" d="M 1172 4494 
L 1172 3500 
L 2356 3500 
L 2356 3053 
L 1172 3053 
L 1172 1153 
Q 1172 725 1289 603 
Q 1406 481 1766 481 
L 2356 481 
L 2356 0 
L 1766 0 
Q 1100 0 847 248 
Q 594 497 594 1153 
L 594 3053 
L 172 3053 
L 172 3500 
L 594 3500 
L 594 4494 
L 1172 4494 
z
" transform="scale(0.015625)"/>
       <path id="DejaVuSans-63" d="M 3122 3366 
L 3122 2828 
Q 2878 2963 2633 3030 
Q 2388 3097 2138 3097 
Q 1578 3097 1268 2742 
Q 959 2388 959 1747 
Q 959 1106 1268 751 
Q 1578 397 2138 397 
Q 2388 397 2633 464 
Q 2878 531 3122 666 
L 3122 134 
Q 2881 22 2623 -34 
Q 2366 -91 2075 -91 
Q 1284 -91 818 406 
Q 353 903 353 1747 
Q 353 2603 823 3093 
Q 1294 3584 2113 3584 
Q 2378 3584 2631 3529 
Q 2884 3475 3122 3366 
z
" transform="scale(0.015625)"/>
       <path id="DejaVuSans-68" d="M 3513 2113 
L 3513 0 
L 2938 0 
L 2938 2094 
Q 2938 2591 2744 2837 
Q 2550 3084 2163 3084 
Q 1697 3084 1428 2787 
Q 1159 2491 1159 1978 
L 1159 0 
L 581 0 
L 581 4863 
L 1159 4863 
L 1159 2956 
Q 1366 3272 1645 3428 
Q 1925 3584 2291 3584 
Q 2894 3584 3203 3211 
Q 3513 2838 3513 2113 
z
" transform="scale(0.015625)"/>
       <path id="DejaVuSans-20" transform="scale(0.015625)"/>
       <path id="DejaVuSans-73" d="M 2834 3397 
L 2834 2853 
Q 2591 2978 2328 3040 
Q 2066 3103 1784 3103 
Q 1356 3103 1142 2972 
Q 928 2841 928 2578 
Q 928 2378 1081 2264 
Q 1234 2150 1697 2047 
L 1894 2003 
Q 2506 1872 2764 1633 
Q 3022 1394 3022 966 
Q 3022 478 2636 193 
Q 2250 -91 1575 -91 
Q 1294 -91 989 -36 
Q 684 19 347 128 
L 347 722 
Q 666 556 975 473 
Q 1284 391 1588 391 
Q 1994 391 2212 530 
Q 2431 669 2431 922 
Q 2431 1156 2273 1281 
Q 2116 1406 1581 1522 
L 1381 1569 
Q 847 1681 609 1914 
Q 372 2147 372 2553 
Q 372 3047 722 3315 
Q 1072 3584 1716 3584 
Q 2034 3584 2315 3537 
Q 2597 3491 2834 3397 
z
" transform="scale(0.015625)"/>
       <path id="DejaVuSans-69" d="M 603 3500 
L 1178 3500 
L 1178 0 
L 603 0 
L 603 3500 
z
M 603 4863 
L 1178 4863 
L 1178 4134 
L 603 4134 
L 603 4863 
z
" transform="scale(0.015625)"/>
       <path id="DejaVuSans-7a" d="M 353 3500 
L 3084 3500 
L 3084 2975 
L 922 459 
L 3084 459 
L 3084 0 
L 275 0 
L 275 525 
L 2438 3041 
L 353 3041 
L 353 3500 
z
" transform="scale(0.015625)"/>
       <path id="DejaVuSans-65" d="M 3597 1894 
L 3597 1613 
L 953 1613 
Q 991 1019 1311 708 
Q 1631 397 2203 397 
Q 2534 397 2845 478 
Q 3156 559 3463 722 
L 3463 178 
Q 3153 47 2828 -22 
Q 2503 -91 2169 -91 
Q 1331 -91 842 396 
Q 353 884 353 1716 
Q 353 2575 817 3079 
Q 1281 3584 2069 3584 
Q 2775 3584 3186 3129 
Q 3597 2675 3597 1894 
z
M 3022 2063 
Q 3016 2534 2758 2815 
Q 2500 3097 2075 3097 
Q 1594 3097 1305 2825 
Q 1016 2553 972 2059 
L 3022 2063 
z
" transform="scale(0.015625)"/>
      </defs>
      <use xlink:href="#DejaVuSans-62"/>
      <use xlink:href="#DejaVuSans-61" transform="translate(63.476562 0)"/>
      <use xlink:href="#DejaVuSans-74" transform="translate(124.755859 0)"/>
      <use xlink:href="#DejaVuSans-63" transform="translate(163.964844 0)"/>
      <use xlink:href="#DejaVuSans-68" transform="translate(218.945312 0)"/>
      <use xlink:href="#DejaVuSans-20" transform="translate(282.324219 0)"/>
      <use xlink:href="#DejaVuSans-73" transform="translate(314.111328 0)"/>
      <use xlink:href="#DejaVuSans-69" transform="translate(366.210938 0)"/>
      <use xlink:href="#DejaVuSans-7a" transform="translate(393.994141 0)"/>
      <use xlink:href="#DejaVuSans-65" transform="translate(446.484375 0)"/>
     </g>
    </g>
   </g>
   <g id="matplotlib.axis_2">
    <g id="ytick_1">
     <g id="line2d_4">
      <path d="M 41.278365 310.721683 
L 630.59976 310.721683 
" clip-path="url(#p09d4dff465)" style="fill: none; stroke-dasharray: 3.33,1.44; stroke-dashoffset: 0; stroke: #3a3f4b; stroke-opacity: 0.9; stroke-width: 0.9"/>
     </g>
     <g id="line2d_5">
      <defs>
       <path id="m123040c538" d="M 0 0 
L -3.5 0 
" style="stroke: #e6e6e6; stroke-width: 0.8"/>
      </defs>
      <g>
       <use xlink:href="#m123040c538" x="41.278365" y="310.721683" style="fill: #e6e6e6; stroke: #e6e6e6; stroke-width: 0.8"/>
      </g>
     </g>
     <g id="text_5">
      <!-- $\mathdefault{10^{6}}$ -->
      <g style="fill: #e6e6e6" transform="translate(16.678365 314.520901) scale(0.1 -0.1)">
       <defs>
        <path id="DejaVuSans-36" d="M 2113 2584 
Q 1688 2584 1439 2293 
Q 1191 2003 1191 1497 
Q 1191 994 1439 701 
Q 1688 409 2113 409 
Q 2538 409 2786 701 
Q 3034 994 3034 1497 
Q 3034 2003 2786 2293 
Q 2538 2584 2113 2584 
z
M 3366 4563 
L 3366 3988 
Q 3128 4100 2886 4159 
Q 2644 4219 2406 4219 
Q 1781 4219 1451 3797 
Q 1122 3375 1075 2522 
Q 1259 2794 1537 2939 
Q 1816 3084 2150 3084 
Q 2853 3084 3261 2657 
Q 3669 2231 3669 1497 
Q 3669 778 3244 343 
Q 2819 -91 2113 -91 
Q 1303 -91 875 529 
Q 447 1150 447 2328 
Q 447 3434 972 4092 
Q 1497 4750 2381 4750 
Q 2619 4750 2861 4703 
Q 3103 4656 3366 4563 
z
" transform="scale(0.015625)"/>
       </defs>
       <use xlink:href="#DejaVuSans-31" transform="translate(0 0.765625)"/>
       <use xlink:href="#DejaVuSans-30" transform="translate(63.623047 0.765625)"/>
       <use xlink:href="#DejaVuSans-36" transform="translate(128.203125 39.046875) scale(0.7)"/>
      </g>
     </g>
    </g>
    <g id="ytick_2">
     <g id="line2d_6">
      <path d="M 41.278365 185.957497 
L 630.59976 185.957497 
" clip-path="url(#p09d4dff465)" style="fill: none; stroke-dasharray: 3.33,1.44; stroke-dashoffset: 0; stroke: #3a3f4b; stroke-opacity: 0.9; stroke-width: 0.9"/>
     </g>
     <g id="line2d_7">
      <g>
       <use xlink:href="#m123040c538" x="41.278365" y="185.957497" style="fill: #e6e6e6; stroke: #e6e6e6; stroke-width: 0.8"/>
      </g>
     </g>
     <g id="text_6">
      <!-- $\mathdefault{10^{7}}$ -->
      <g style="fill: #e6e6e6" transform="translate(16.678365 189.756715) scale(0.1 -0.1)">
       <defs>
        <path id="DejaVuSans-37" d="M 525 4666 
L 3525 4666 
L 3525 4397 
L 1831 0 
L 1172 0 
L 2766 4134 
L 525 4134 
L 525 4666 
z
" transform="scale(0.015625)"/>
       </defs>
       <use xlink:href="#DejaVuSans-31" transform="translate(0 0.684375)"/>
       <use xlink:href="#DejaVuSans-30" transform="translate(63.623047 0.684375)"/>
       <use xlink:href="#DejaVuSans-37" transform="translate(128.203125 38.965625) scale(0.7)"/>
      </g>
     </g>
    </g>
    <g id="ytick_3">
     <g id="line2d_8">
      <path d="M 41.278365 61.19331 
L 630.59976 61.19331 
" clip-path="url(#p09d4dff465)" style="fill: none; stroke-dasharray: 3.33,1.44; stroke-dashoffset: 0; stroke: #3a3f4b; stroke-opacity: 0.9; stroke-width: 0.9"/>
     </g>
     <g id="line2d_9">
      <g>
       <use xlink:href="#m123040c538" x="41.278365" y="61.19331" style="fill: #e6e6e6; stroke: #e6e6e6; stroke-width: 0.8"/>
      </g>
     </g>
     <g id="text_7">
      <!-- $\mathdefault{10^{8}}$ -->
      <g style="fill: #e6e6e6" transform="translate(16.678365 64.992529) scale(0.1 -0.1)">
       <defs>
        <path id="DejaVuSans-38" d="M 2034 2216 
Q 1584 2216 1326 1975 
Q 1069 1734 1069 1313 
Q 1069 891 1326 650 
Q 1584 409 2034 409 
Q 2484 409 2743 651 
Q 3003 894 3003 1313 
Q 3003 1734 2745 1975 
Q 2488 2216 2034 2216 
z
M 1403 2484 
Q 997 2584 770 2862 
Q 544 3141 544 3541 
Q 544 4100 942 4425 
Q 1341 4750 2034 4750 
Q 2731 4750 3128 4425 
Q 3525 4100 3525 3541 
Q 3525 3141 3298 2862 
Q 3072 2584 2669 2484 
Q 3125 2378 3379 2068 
Q 3634 1759 3634 1313 
Q 3634 634 3220 271 
Q 2806 -91 2034 -91 
Q 1263 -91 848 271 
Q 434 634 434 1313 
Q 434 1759 690 2068 
Q 947 2378 1403 2484 
z
M 1172 3481 
Q 1172 3119 1398 2916 
Q 1625 2713 2034 2713 
Q 2441 2713 2670 2916 
Q 2900 3119 2900 3481 
Q 2900 3844 2670 4047 
Q 2441 4250 2034 4250 
Q 1625 4250 1398 4047 
Q 1172 3844 1172 3481 
z
" transform="scale(0.015625)"/>
       </defs>
       <use xlink:href="#DejaVuSans-31" transform="translate(0 0.765625)"/>
       <use xlink:href="#DejaVuSans-30" transform="translate(63.623047 0.765625)"/>
       <use xlink:href="#DejaVuSans-38" transform="translate(128.203125 39.046875) scale(0.7)"/>
      </g>
     </g>
    </g>
    <g id="ytick_4">
     <g id="line2d_10">
      <defs>
       <path id="m7dfd224d8a" d="M 0 0 
L -2 0 
" style="stroke: #e6e6e6; stroke-width: 0.6"/>
      </defs>
      <g>
       <use xlink:href="#m7dfd224d8a" x="41.278365" y="397.928106" style="fill: #e6e6e6; stroke: #e6e6e6; stroke-width: 0.6"/>
      </g>
     </g>
    </g>
    <g id="ytick_5">
     <g id="line2d_11">
      <g>
       <use xlink:href="#m7dfd224d8a" x="41.278365" y="375.958224" style="fill: #e6e6e6; stroke: #e6e6e6; stroke-width: 0.6"/>
      </g>
     </g>
    </g>
    <g id="ytick_6">
     <g id="line2d_12">
      <g>
       <use xlink:href="#m7dfd224d8a" x="41.278365" y="360.370344" style="fill: #e6e6e6; stroke: #e6e6e6; stroke-width: 0.6"/>
      </g>
     </g>
    </g>
    <g id="ytick_7">
     <g id="line2d_13">
      <g>
       <use xlink:href="#m7dfd224d8a" x="41.278365" y="348.279445" style="fill: #e6e6e6; stroke: #e6e6e6; stroke-width: 0.6"/>
      </g>
     </g>
    </g>
    <g id="ytick_8">
     <g id="line2d_14">
      <g>
       <use xlink:href="#m7dfd224d8a" x="41.278365" y="338.400461" style="fill: #e6e6e6; stroke: #e6e6e6; stroke-width: 0.6"/>
      </g>
     </g>
    </g>
    <g id="ytick_9">
     <g id="line2d_15">
      <g>
       <use xlink:href="#m7dfd224d8a" x="41.278365" y="330.0479" style="fill: #e6e6e6; stroke: #e6e6e6; stroke-width: 0.6"/>
      </g>
     </g>
    </g>
    <g id="ytick_10">
     <g id="line2d_16">
      <g>
       <use xlink:href="#m7dfd224d8a" x="41.278365" y="322.812582" style="fill: #e6e6e6; stroke: #e6e6e6; stroke-width: 0.6"/>
      </g>
     </g>
    </g>
    <g id="ytick_11">
     <g id="line2d_17">
      <g>
       <use xlink:href="#m7dfd224d8a" x="41.278365" y="316.430579" style="fill: #e6e6e6; stroke: #e6e6e6; stroke-width: 0.6"/>
      </g>
     </g>
    </g>
    <g id="ytick_12">
     <g id="line2d_18">
      <g>
       <use xlink:href="#m7dfd224d8a" x="41.278365" y="273.16392" style="fill: #e6e6e6; stroke: #e6e6e6; stroke-width: 0.6"/>
      </g>
     </g>
    </g>
    <g id="ytick_13">
     <g id="line2d_19">
      <g>
       <use xlink:href="#m7dfd224d8a" x="41.278365" y="251.194038" style="fill: #e6e6e6; stroke: #e6e6e6; stroke-width: 0.6"/>
      </g>
     </g>
    </g>
    <g id="ytick_14">
     <g id="line2d_20">
      <g>
       <use xlink:href="#m7dfd224d8a" x="41.278365" y="235.606158" style="fill: #e6e6e6; stroke: #e6e6e6; stroke-width: 0.6"/>
      </g>
     </g>
    </g>
    <g id="ytick_15">
     <g id="line2d_21">
      <g>
       <use xlink:href="#m7dfd224d8a" x="41.278365" y="223.515259" style="fill: #e6e6e6; stroke: #e6e6e6; stroke-width: 0.6"/>
      </g>
     </g>
    </g>
    <g id="ytick_16">
     <g id="line2d_22">
      <g>
       <use xlink:href="#m7dfd224d8a" x="41.278365" y="213.636275" style="fill: #e6e6e6; stroke: #e6e6e6; stroke-width: 0.6"/>
      </g>
     </g>
    </g>
    <g id="ytick_17">
     <g id="line2d_23">
      <g>
       <use xlink:href="#m7dfd224d8a" x="41.278365" y="205.283714" style="fill: #e6e6e6; stroke: #e6e6e6; stroke-width: 0.6"/>
      </g>
     </g>
    </g>
    <g id="ytick_18">
     <g id="line2d_24">
      <g>
       <use xlink:href="#m7dfd224d8a" x="41.278365" y="198.048395" style="fill: #e6e6e6; stroke: #e6e6e6; stroke-width: 0.6"/>
      </g>
     </g>
    </g>
    <g id="ytick_19">
     <g id="line2d_25">
      <g>
       <use xlink:href="#m7dfd224d8a" x="41.278365" y="191.666393" style="fill: #e6e6e6; stroke: #e6e6e6; stroke-width: 0.6"/>
      </g>
     </g>
    </g>
    <g id="ytick_20">
     <g id="line2d_26">
      <g>
       <use xlink:href="#m7dfd224d8a" x="41.278365" y="148.399734" style="fill: #e6e6e6; stroke: #e6e6e6; stroke-width: 0.6"/>
      </g>
     </g>
    </g>
    <g id="ytick_21">
     <g id="line2d_27">
      <g>
       <use xlink:href="#m7dfd224d8a" x="41.278365" y="126.429852" style="fill: #e6e6e6; stroke: #e6e6e6; stroke-width: 0.6"/>
      </g>
     </g>
    </g>
    <g id="ytick_22">
     <g id="line2d_28">
      <g>
       <use xlink:href="#m7dfd224d8a" x="41.278365" y="110.841972" style="fill: #e6e6e6; stroke: #e6e6e6; stroke-width: 0.6"/>
      </g>
     </g>
    </g>
    <g id="ytick_23">
     <g id="line2d_29">
      <g>
       <use xlink:href="#m7dfd224d8a" x="41.278365" y="98.751073" style="fill: #e6e6e6; stroke: #e6e6e6; stroke-width: 0.6"/>
      </g>
     </g>
    </g>
    <g id="ytick_24">
     <g id="line2d_30">
      <g>
       <use xlink:href="#m7dfd224d8a" x="41.278365" y="88.872089" style="fill: #e6e6e6; stroke: #e6e6e6; stroke-width: 0.6"/>
      </g>
     </g>
    </g>
    <g id="ytick_25">
     <g id="line2d_31">
      <g>
       <use xlink:href="#m7dfd224d8a" x="41.278365" y="80.519527" style="fill: #e6e6e6; stroke: #e6e6e6; stroke-width: 0.6"/>
      </g>
     </g>
    </g>
    <g id="ytick_26">
     <g id="line2d_32">
      <g>
       <use xlink:href="#m7dfd224d8a" x="41.278365" y="73.284209" style="fill: #e6e6e6; stroke: #e6e6e6; stroke-width: 0.6"/>
      </g>
     </g>
    </g>
    <g id="ytick_27">
     <g id="line2d_33">
      <g>
       <use xlink:href="#m7dfd224d8a" x="41.278365" y="66.902206" style="fill: #e6e6e6; stroke: #e6e6e6; stroke-width: 0.6"/>
      </g>
     </g>
    </g>
    <g id="text_8">
     <!-- avg latency -->
     <g style="fill: #e6e6e6" transform="translate(10.598677 260.47952) rotate(-90) scale(0.1 -0.1)">
      <defs>
       <path id="DejaVuSans-76" d="M 191 3500 
L 800 3500 
L 1894 563 
L 2988 3500 
L 3597 3500 
L 2284 0 
L 1503 0 
L 191 3500 
z
" transform="scale(0.015625)"/>
       <path id="DejaVuSans-67" d="M 2906 1791 
Q 2906 2416 2648 2759 
Q 2391 3103 1925 3103 
Q 1463 3103 1205 2759 
Q 947 2416 947 1791 
Q 947 1169 1205 825 
Q 1463 481 1925 481 
Q 2391 481 2648 825 
Q 2906 1169 2906 1791 
z
M 3481 434 
Q 3481 -459 3084 -895 
Q 2688 -1331 1869 -1331 
Q 1566 -1331 1297 -1286 
Q 1028 -1241 775 -1147 
L 775 -588 
Q 1028 -725 1275 -790 
Q 1522 -856 1778 -856 
Q 2344 -856 2625 -561 
Q 2906 -266 2906 331 
L 2906 616 
Q 2728 306 2450 153 
Q 2172 0 1784 0 
Q 1141 0 747 490 
Q 353 981 353 1791 
Q 353 2603 747 3093 
Q 1141 3584 1784 3584 
Q 2172 3584 2450 3431 
Q 2728 3278 2906 2969 
L 2906 3500 
L 3481 3500 
L 3481 434 
z
" transform="scale(0.015625)"/>
       <path id="DejaVuSans-6c" d="M 603 4863 
L 1178 4863 
L 1178 0 
L 603 0 
L 603 4863 
z
" transform="scale(0.015625)"/>
       <path id="DejaVuSans-79" d="M 2059 -325 
Q 1816 -950 1584 -1140 
Q 1353 -1331 966 -1331 
L 506 -1331 
L 506 -850 
L 844 -850 
Q 1081 -850 1212 -737 
Q 1344 -625 1503 -206 
L 1606 56 
L 191 3500 
L 800 3500 
L 1894 763 
L 2988 3500 
L 3597 3500 
L 2059 -325 
z
" transform="scale(0.015625)"/>
      </defs>
      <use xlink:href="#DejaVuSans-61"/>
      <use xlink:href="#DejaVuSans-76" transform="translate(61.279297 0)"/>
      <use xlink:href="#DejaVuSans-67" transform="translate(120.458984 0)"/>
      <use xlink:href="#DejaVuSans-20" transform="translate(183.935547 0)"/>
      <use xlink:href="#DejaVuSans-6c" transform="translate(215.722656 0)"/>
      <use xlink:href="#DejaVuSans-61" transform="translate(243.505859 0)"/>
      <use xlink:href="#DejaVuSans-74" transform="translate(304.785156 0)"/>
      <use xlink:href="#DejaVuSans-65" transform="translate(343.994141 0)"/>
      <use xlink:href="#DejaVuSans-6e" transform="translate(405.517578 0)"/>
      <use xlink:href="#DejaVuSans-63" transform="translate(468.896484 0)"/>
      <use xlink:href="#DejaVuSans-79" transform="translate(523.876953 0)"/>
     </g>
    </g>
   </g>
   <g id="line2d_34">
    <path d="M 68.065701 392.432792 
L 116.769949 211.873896 
L 603.812424 113.725543 
" clip-path="url(#p09d4dff465)" style="fill: none; stroke: #7dd3fc; stroke-width: 2.5; stroke-linecap: square"/>
    <defs>
     <path id="m2f0109d5ec" d="M 0 3 
C 0.795609 3 1.55874 2.683901 2.12132 2.12132 
C 2.683901 1.55874 3 0.795609 3 0 
C 3 -0.795609 2.683901 -1.55874 2.12132 -2.12132 
C 1.55874 -2.683901 0.795609 -3 0 -3 
C -0.795609 -3 -1.55874 -2.683901 -2.12132 -2.12132 
C -2.683901 -1.55874 -3 -0.795609 -3 0 
C -3 0.795609 -2.683901 1.55874 -2.12132 2.12132 
C -1.55874 2.683901 -0.795609 3 0 3 
z
" style="stroke: #7dd3fc"/>
    </defs>
    <g clip-path="url(#p09d4dff465)">
     <use xlink:href="#m2f0109d5ec" x="68.065701" y="392.432792" style="fill: #7dd3fc; stroke: #7dd3fc"/>
     <use xlink:href="#m2f0109d5ec" x="116.769949" y="211.873896" style="fill: #7dd3fc; stroke: #7dd3fc"/>
     <use xlink:href="#m2f0109d5ec" x="603.812424" y="113.725543" style="fill: #7dd3fc; stroke: #7dd3fc"/>
    </g>
   </g>
   <g id="line2d_35">
    <path d="M 68.065701 301.459674 
L 116.769949 213.51271 
L 603.812424 98.581018 
" clip-path="url(#p09d4dff465)" style="fill: none; stroke: #f59e0b; stroke-width: 2.5; stroke-linecap: square"/>
    <defs>
     <path id="m1ccb4f61f6" d="M 0 3 
C 0.795609 3 1.55874 2.683901 2.12132 2.12132 
C 2.683901 1.55874 3 0.795609 3 0 
C 3 -0.795609 2.683901 -1.55874 2.12132 -2.12132 
C 1.55874 -2.683901 0.795609 -3 0 -3 
C -0.795609 -3 -1.55874 -2.683901 -2.12132 -2.12132 
C -2.683901 -1.55874 -3 -0.795609 -3 0 
C -3 0.795609 -2.683901 1.55874 -2.12132 2.12132 
C -1.55874 2.683901 -0.795609 3 0 3 
z
" style="stroke: #f59e0b"/>
    </defs>
    <g clip-path="url(#p09d4dff465)">
     <use xlink:href="#m1ccb4f61f6" x="68.065701" y="301.459674" style="fill: #f59e0b; stroke: #f59e0b"/>
     <use xlink:href="#m1ccb4f61f6" x="116.769949" y="213.51271" style="fill: #f59e0b; stroke: #f59e0b"/>
     <use xlink:href="#m1ccb4f61f6" x="603.812424" y="98.581018" style="fill: #f59e0b; stroke: #f59e0b"/>
    </g>
   </g>
   <g id="line2d_36">
    <path d="M 68.065701 254.045636 
L 116.769949 181.826245 
L 603.812424 70.218435 
" clip-path="url(#p09d4dff465)" style="fill: none; stroke: #a3e635; stroke-width: 2.5; stroke-linecap: square"/>
    <defs>
     <path id="m0e6fe0a54e" d="M 0 3 
C 0.795609 3 1.55874 2.683901 2.12132 2.12132 
C 2.683901 1.55874 3 0.795609 3 0 
C 3 -0.795609 2.683901 -1.55874 2.12132 -2.12132 
C 1.55874 -2.683901 0.795609 -3 0 -3 
C -0.795609 -3 -1.55874 -2.683901 -2.12132 -2.12132 
C -2.683901 -1.55874 -3 -0.795609 -3 0 
C -3 0.795609 -2.683901 1.55874 -2.12132 2.12132 
C -1.55874 2.683901 -0.795609 3 0 3 
z
" style="stroke: #a3e635"/>
    </defs>
    <g clip-path="url(#p09d4dff465)">
     <use xlink:href="#m0e6fe0a54e" x="68.065701" y="254.045636" style="fill: #a3e635; stroke: #a3e635"/>
     <use xlink:href="#m0e6fe0a54e" x="116.769949" y="181.826245" style="fill: #a3e635; stroke: #a3e635"/>
     <use xlink:href="#m0e6fe0a54e" x="603.812424" y="70.218435" style="fill: #a3e635; stroke: #a3e635"/>
    </g>
   </g>
   <g id="line2d_37">
    <path d="M 68.065701 293.411266 
L 116.769949 183.924832 
L 603.812424 70.705018 
" clip-path="url(#p09d4dff465)" style="fill: none; stroke: #60a5fa; stroke-width: 2.5; stroke-linecap: square"/>
    <defs>
     <path id="ma06a44bd2b" d="M 0 3 
C 0.795609 3 1.55874 2.683901 2.12132 2.12132 
C 2.683901 1.55874 3 0.795609 3 0 
C 3 -0.795609 2.683901 -1.55874 2.12132 -2.12132 
C 1.55874 -2.683901 0.795609 -3 0 -3 
C -0.795609 -3 -1.55874 -2.683901 -2.12132 -2.12132 
C -2.683901 -1.55874 -3 -0.795609 -3 0 
C -3 0.795609 -2.683901 1.55874 -2.12132 2.12132 
C -1.55874 2.683901 -0.795609 3 0 3 
z
" style="stroke: #60a5fa"/>
    </defs>
    <g clip-path="url(#p09d4dff465)">
     <use xlink:href="#ma06a44bd2b" x="68.065701" y="293.411266" style="fill: #60a5fa; stroke: #60a5fa"/>
     <use xlink:href="#ma06a44bd2b" x="116.769949" y="183.924832" style="fill: #60a5fa; stroke: #60a5fa"/>
     <use xlink:href="#ma06a44bd2b" x="603.812424" y="70.705018" style="fill: #60a5fa; stroke: #60a5fa"/>
    </g>
   </g>
   <g id="patch_3">
    <path d="M 41.278365 408.54351 
L 41.278365 54.107717 
" style="fill: none; stroke: #c7c7c7; stroke-width: 0.8; stroke-linejoin: miter; stroke-linecap: square"/>
   </g>
   <g id="patch_4">
    <path d="M 630.59976 408.54351 
L 630.59976 54.107717 
" style="fill: none; stroke: #c7c7c7; stroke-width: 0.8; stroke-linejoin: miter; stroke-linecap: square"/>
   </g>
   <g id="patch_5">
    <path d="M 41.278365 408.54351 
L 630.59976 408.54351 
" style="fill: none; stroke: #c7c7c7; stroke-width: 0.8; stroke-linejoin: miter; stroke-linecap: square"/>
   </g>
   <g id="patch_6">
    <path d="M 41.278365 54.107717 
L 630.59976 54.107717 
" style="fill: none; stroke: #c7c7c7; stroke-width: 0.8; stroke-linejoin: miter; stroke-linecap: square"/>
   </g>
   <g id="text_9">
    <!-- large string 1 MiB -->
    <g style="fill: #e6e6e6" transform="translate(41.278365 43.474644) scale(0.11 -0.11)">
     <defs>
      <path id="DejaVuSans-72" d="M 2631 2963 
Q 2534 3019 2420 3045 
Q 2306 3072 2169 3072 
Q 1681 3072 1420 2755 
Q 1159 2438 1159 1844 
L 1159 0 
L 581 0 
L 581 3500 
L 1159 3500 
L 1159 2956 
Q 1341 3275 1631 3429 
Q 1922 3584 2338 3584 
Q 2397 3584 2469 3576 
Q 2541 3569 2628 3553 
L 2631 2963 
z
" transform="scale(0.015625)"/>
      <path id="DejaVuSans-4d" d="M 628 4666 
L 1569 4666 
L 2759 1491 
L 3956 4666 
L 4897 4666 
L 4897 0 
L 4281 0 
L 4281 4097 
L 3078 897 
L 2444 897 
L 1241 4097 
L 1241 0 
L 628 0 
L 628 4666 
z
" transform="scale(0.015625)"/>
      <path id="DejaVuSans-42" d="M 1259 2228 
L 1259 519 
L 2272 519 
Q 2781 519 3026 730 
Q 3272 941 3272 1375 
Q 3272 1813 3026 2020 
Q 2781 2228 2272 2228 
L 1259 2228 
z
M 1259 4147 
L 1259 2741 
L 2194 2741 
Q 2656 2741 2882 2914 
Q 3109 3088 3109 3444 
Q 3109 3797 2882 3972 
Q 2656 4147 2194 4147 
L 1259 4147 
z
M 628 4666 
L 2241 4666 
Q 2963 4666 3353 4366 
Q 3744 4066 3744 3513 
Q 3744 3084 3544 2831 
Q 3344 2578 2956 2516 
Q 3422 2416 3680 2098 
Q 3938 1781 3938 1306 
Q 3938 681 3513 340 
Q 3088 0 2303 0 
L 628 0 
L 628 4666 
z
" transform="scale(0.015625)"/>
     </defs>
     <use xlink:href="#DejaVuSans-6c"/>
     <use xlink:href="#DejaVuSans-61" transform="translate(27.783203 0)"/>
     <use xlink:href="#DejaVuSans-72" transform="translate(89.0625 0)"/>
     <use xlink:href="#DejaVuSans-67" transform="translate(128.425781 0)"/>
     <use xlink:href="#DejaVuSans-65" transform="translate(191.902344 0)"/>
     <use xlink:href="#DejaVuSans-20" transform="translate(253.425781 0)"/>
     <use xlink:href="#DejaVuSans-73" transform="translate(285.212891 0)"/>
     <use xlink:href="#DejaVuSans-74" transform="translate(337.3125 0)"/>
     <use xlink:href="#DejaVuSans-72" transform="translate(376.521484 0)"/>
     <use xlink:href="#DejaVuSans-69" transform="translate(417.634766 0)"/>
     <use xlink:href="#DejaVuSans-6e" transform="translate(445.417969 0)"/>
     <use xlink:href="#DejaVuSans-67" transform="translate(508.796875 0)"/>
     <use xlink:href="#DejaVuSans-20" transform="translate(572.273438 0)"/>
     <use xlink:href="#DejaVuSans-31" transform="translate(604.060547 0)"/>
     <use xlink:href="#DejaVuSans-20" transform="translate(667.683594 0)"/>
     <use xlink:href="#DejaVuSans-4d" transform="translate(699.470703 0)"/>
     <use xlink:href="#DejaVuSans-69" transform="translate(785.75 0)"/>
     <use xlink:href="#DejaVuSans-42" transform="translate(813.533203 0)"/>
    </g>
   </g>
   <g id="text_10">
    <!-- Batch Avg Latency (less is better) -->
    <g style="fill: #f0f0f0" transform="translate(41.278365 32.107717) scale(0.17 -0.17)">
     <defs>
      <path id="DejaVuSans-41" d="M 2188 4044 
L 1331 1722 
L 3047 1722 
L 2188 4044 
z
M 1831 4666 
L 2547 4666 
L 4325 0 
L 3669 0 
L 3244 1197 
L 1141 1197 
L 716 0 
L 50 0 
L 1831 4666 
z
" transform="scale(0.015625)"/>
      <path id="DejaVuSans-4c" d="M 628 4666 
L 1259 4666 
L 1259 531 
L 3531 531 
L 3531 0 
L 628 0 
L 628 4666 
z
" transform="scale(0.015625)"/>
      <path id="DejaVuSans-28" d="M 1984 4856 
Q 1566 4138 1362 3434 
Q 1159 2731 1159 2009 
Q 1159 1288 1364 580 
Q 1569 -128 1984 -844 
L 1484 -844 
Q 1016 -109 783 600 
Q 550 1309 550 2009 
Q 550 2706 781 3412 
Q 1013 4119 1484 4856 
L 1984 4856 
z
" transform="scale(0.015625)"/>
      <path id="DejaVuSans-29" d="M 513 4856 
L 1013 4856 
Q 1481 4119 1714 3412 
Q 1947 2706 1947 2009 
Q 1947 1309 1714 600 
Q 1481 -109 1013 -844 
L 513 -844 
Q 928 -128 1133 580 
Q 1338 1288 1338 2009 
Q 1338 2731 1133 3434 
Q 928 4138 513 4856 
z
" transform="scale(0.015625)"/>
     </defs>
     <use xlink:href="#DejaVuSans-42"/>
     <use xlink:href="#DejaVuSans-61" transform="translate(68.603516 0)"/>
     <use xlink:href="#DejaVuSans-74" transform="translate(129.882812 0)"/>
     <use xlink:href="#DejaVuSans-63" transform="translate(169.091797 0)"/>
     <use xlink:href="#DejaVuSans-68" transform="translate(224.072266 0)"/>
     <use xlink:href="#DejaVuSans-20" transform="translate(287.451172 0)"/>
     <use xlink:href="#DejaVuSans-41" transform="translate(319.238281 0)"/>
     <use xlink:href="#DejaVuSans-76" transform="translate(381.771484 0)"/>
     <use xlink:href="#DejaVuSans-67" transform="translate(440.951172 0)"/>
     <use xlink:href="#DejaVuSans-20" transform="translate(504.427734 0)"/>
     <use xlink:href="#DejaVuSans-4c" transform="translate(536.214844 0)"/>
     <use xlink:href="#DejaVuSans-61" transform="translate(591.927734 0)"/>
     <use xlink:href="#DejaVuSans-74" transform="translate(653.207031 0)"/>
     <use xlink:href="#DejaVuSans-65" transform="translate(692.416016 0)"/>
     <use xlink:href="#DejaVuSans-6e" transform="translate(753.939453 0)"/>
     <use xlink:href="#DejaVuSans-63" transform="translate(817.318359 0)"/>
     <use xlink:href="#DejaVuSans-79" transform="translate(872.298828 0)"/>
     <use xlink:href="#DejaVuSans-20" transform="translate(931.478516 0)"/>
     <use xlink:href="#DejaVuSans-28" transform="translate(963.265625 0)"/>
     <use xlink:href="#DejaVuSans-6c" transform="translate(1002.279297 0)"/>
     <use xlink:href="#DejaVuSans-65" transform="translate(1030.0625 0)"/>
     <use xlink:href="#DejaVuSans-73" transform="translate(1091.585938 0)"/>
     <use xlink:href="#DejaVuSans-73" transform="translate(1143.685547 0)"/>
     <use xlink:href="#DejaVuSans-20" transform="translate(1195.785156 0)"/>
     <use xlink:href="#DejaVuSans-69" transform="translate(1227.572266 0)"/>
     <use xlink:href="#DejaVuSans-73" transform="translate(1255.355469 0)"/>
     <use xlink:href="#DejaVuSans-20" transform="translate(1307.455078 0)"/>
     <use xlink:href="#DejaVuSans-62" transform="translate(1339.242188 0)"/>
     <use xlink:href="#DejaVuSans-65" transform="translate(1402.71875 0)"/>
     <use xlink:href="#DejaVuSans-74" transform="translate(1464.242188 0)"/>
     <use xlink:href="#DejaVuSans-74" transform="translate(1503.451172 0)"/>
     <use xlink:href="#DejaVuSans-65" transform="translate(1542.660156 0)"/>
     <use xlink:href="#DejaVuSans-72" transform="translate(1604.183594 0)"/>
     <use xlink:href="#DejaVuSans-29" transform="translate(1645.296875 0)"/>
    </g>
   </g>
   <g id="legend_1">
    <g id="patch_7">
     <path d="M 48.278365 20.752854 
L 317.94399 20.752854 
Q 319.94399 20.752854 319.94399 18.752854 
L 319.94399 5.074729 
Q 319.94399 3.074729 317.94399 3.074729 
L 48.278365 3.074729 
Q 46.278365 3.074729 46.278365 5.074729 
L 46.278365 18.752854 
Q 46.278365 20.752854 48.278365 20.752854 
z
" style="fill: #111318; opacity: 0.8; stroke: #2a2f3a; stroke-linejoin: miter"/>
    </g>
    <g id="line2d_38">
     <path d="M 50.278365 11.173166 
L 60.278365 11.173166 
L 70.278365 11.173166 
" style="fill: none; stroke: #7dd3fc; stroke-width: 2.5; stroke-linecap: square"/>
     <g>
      <use xlink:href="#m2f0109d5ec" x="60.278365" y="11.173166" style="fill: #7dd3fc; stroke: #7dd3fc"/>
     </g>
    </g>
    <g id="text_11">
     <!-- tokio -->
     <g style="fill: #e6e6e6" transform="translate(78.278365 14.673166) scale(0.1 -0.1)">
      <defs>
       <path id="DejaVuSans-6f" d="M 1959 3097 
Q 1497 3097 1228 2736 
Q 959 2375 959 1747 
Q 959 1119 1226 758 
Q 1494 397 1959 397 
Q 2419 397 2687 759 
Q 2956 1122 2956 1747 
Q 2956 2369 2687 2733 
Q 2419 3097 1959 3097 
z
M 1959 3584 
Q 2709 3584 3137 3096 
Q 3566 2609 3566 1747 
Q 3566 888 3137 398 
Q 2709 -91 1959 -91 
Q 1206 -91 779 398 
Q 353 888 353 1747 
Q 353 2609 779 3096 
Q 1206 3584 1959 3584 
z
" transform="scale(0.015625)"/>
       <path id="DejaVuSans-6b" d="M 581 4863 
L 1159 4863 
L 1159 1991 
L 2875 3500 
L 3609 3500 
L 1753 1863 
L 3688 0 
L 2938 0 
L 1159 1709 
L 1159 0 
L 581 0 
L 581 4863 
z
" transform="scale(0.015625)"/>
      </defs>
      <use xlink:href="#DejaVuSans-74"/>
      <use xlink:href="#DejaVuSans-6f" transform="translate(39.208984 0)"/>
      <use xlink:href="#DejaVuSans-6b" transform="translate(100.390625 0)"/>
      <use xlink:href="#DejaVuSans-69" transform="translate(158.300781 0)"/>
      <use xlink:href="#DejaVuSans-6f" transform="translate(186.083984 0)"/>
     </g>
    </g>
    <g id="line2d_39">
     <path d="M 123.004928 11.173166 
L 133.004928 11.173166 
L 143.004928 11.173166 
" style="fill: none; stroke: #f59e0b; stroke-width: 2.5; stroke-linecap: square"/>
     <g>
      <use xlink:href="#m1ccb4f61f6" x="133.004928" y="11.173166" style="fill: #f59e0b; stroke: #f59e0b"/>
     </g>
    </g>
    <g id="text_12">
     <!-- bun -->
     <g style="fill: #e6e6e6" transform="translate(151.004928 14.673166) scale(0.1 -0.1)">
      <defs>
       <path id="DejaVuSans-75" d="M 544 1381 
L 544 3500 
L 1119 3500 
L 1119 1403 
Q 1119 906 1312 657 
Q 1506 409 1894 409 
Q 2359 409 2629 706 
Q 2900 1003 2900 1516 
L 2900 3500 
L 3475 3500 
L 3475 0 
L 2900 0 
L 2900 538 
Q 2691 219 2414 64 
Q 2138 -91 1772 -91 
Q 1169 -91 856 284 
Q 544 659 544 1381 
z
M 1991 3584 
L 1991 3584 
z
" transform="scale(0.015625)"/>
      </defs>
      <use xlink:href="#DejaVuSans-62"/>
      <use xlink:href="#DejaVuSans-75" transform="translate(63.476562 0)"/>
      <use xlink:href="#DejaVuSans-6e" transform="translate(126.855469 0)"/>
     </g>
    </g>
    <g id="line2d_40">
     <path d="M 190.028365 11.173166 
L 200.028365 11.173166 
L 210.028365 11.173166 
" style="fill: none; stroke: #a3e635; stroke-width: 2.5; stroke-linecap: square"/>
     <g>
      <use xlink:href="#m0e6fe0a54e" x="200.028365" y="11.173166" style="fill: #a3e635; stroke: #a3e635"/>
     </g>
    </g>
    <g id="text_13">
     <!-- node -->
     <g style="fill: #e6e6e6" transform="translate(218.028365 14.673166) scale(0.1 -0.1)">
      <defs>
       <path id="DejaVuSans-64" d="M 2906 2969 
L 2906 4863 
L 3481 4863 
L 3481 0 
L 2906 0 
L 2906 525 
Q 2725 213 2448 61 
Q 2172 -91 1784 -91 
Q 1150 -91 751 415 
Q 353 922 353 1747 
Q 353 2572 751 3078 
Q 1150 3584 1784 3584 
Q 2172 3584 2448 3432 
Q 2725 3281 2906 2969 
z
M 947 1747 
Q 947 1113 1208 752 
Q 1469 391 1925 391 
Q 2381 391 2643 752 
Q 2906 1113 2906 1747 
Q 2906 2381 2643 2742 
Q 2381 3103 1925 3103 
Q 1469 3103 1208 2742 
Q 947 2381 947 1747 
z
" transform="scale(0.015625)"/>
      </defs>
      <use xlink:href="#DejaVuSans-6e"/>
      <use xlink:href="#DejaVuSans-6f" transform="translate(63.378906 0)"/>
      <use xlink:href="#DejaVuSans-64" transform="translate(124.560547 0)"/>
      <use xlink:href="#DejaVuSans-65" transform="translate(188.037109 0)"/>
     </g>
    </g>
    <g id="line2d_41">
     <path d="M 262.986177 11.173166 
L 272.986177 11.173166 
L 282.986177 11.173166 
" style="fill: none; stroke: #60a5fa; stroke-width: 2.5; stroke-linecap: square"/>
     <g>
      <use xlink:href="#ma06a44bd2b" x="272.986177" y="11.173166" style="fill: #60a5fa; stroke: #60a5fa"/>
     </g>
    </g>
    <g id="text_14">
     <!-- deno -->
     <g style="fill: #e6e6e6" transform="translate(290.986177 14.673166) scale(0.1 -0.1)">
      <use xlink:href="#DejaVuSans-64"/>
      <use xlink:href="#DejaVuSans-65" transform="translate(63.476562 0)"/>
      <use xlink:href="#DejaVuSans-6e" transform="translate(125 0)"/>
      <use xlink:href="#DejaVuSans-6f" transform="translate(188.378906 0)"/>
     </g>
    </g>
   </g>
  </g>
 </g>
 <defs>
  <clipPath id="p09d4dff465">
   <rect x="41.278365" y="54.107717" width="589.321395" height="354.435793"/>
  </clipPath>
 </defs>
</svg>
