<?xml version="1.0" encoding="utf-8" standalone="no"?>
<!DOCTYPE svg PUBLIC "-//W3C//DTD SVG 1.1//EN"
  "http://www.w3.org/Graphics/SVG/1.1/DTD/svg11.dtd">
<svg xmlns:xlink="http://www.w3.org/1999/xlink" width="1116pt" height="590.4pt" viewBox="0 0 1116 590.4" xmlns="http://www.w3.org/2000/svg" version="1.1">
 <metadata>
  <rdf:RDF xmlns:dc="http://purl.org/dc/elements/1.1/" xmlns:cc="http://creativecommons.org/ns#" xmlns:rdf="http://www.w3.org/1999/02/22-rdf-syntax-ns#">
   <cc:Work>
    <dc:type rdf:resource="http://purl.org/dc/dcmitype/StillImage"/>
    <dc:date>2026-03-18T10:14:43.155910</dc:date>
    <dc:format>image/svg+xml</dc:format>
    <dc:creator>
     <cc:Agent>
      <dc:title>Matplotlib v3.10.8, https://matplotlib.org/</dc:title>
     </cc:Agent>
    </dc:creator>
   </cc:Work>
  </rdf:RDF>
 </metadata>
 <defs>
  <style type="text/css">*{stroke-linejoin: round; stroke-linecap: butt}</style>
 </defs>
 <g id="figure_1">
  <g id="patch_1">
   <path d="M 0 590.4 
L 1116 590.4 
L 1116 0 
L 0 0 
z
" style="fill: #0f1116"/>
  </g>
  <g id="axes_1">
   <g id="patch_2">
    <path d="M 41.278365 541.433291 
L 1112.99976 541.433291 
L 1112.99976 64.029268 
L 41.278365 64.029268 
z
" style="fill: #111318"/>
   </g>
   <g id="matplotlib.axis_1">
    <g id="xtick_1">
     <g id="line2d_1">
      <path d="M 89.992974 541.433291 
L 89.992974 64.029268 
" clip-path="url(#pa898f46773)" style="fill: none; stroke-dasharray: 0.7,1.155; stroke-dashoffset: 0; stroke: #3a3f4b; stroke-opacity: 0.45; stroke-width: 0.7"/>
     </g>
     <g id="line2d_2">
      <defs>
       <path id="mcdb1f37867" d="M 0 0 
L 0 3.5 
" style="stroke: #e6e6e6; stroke-width: 0.8"/>
      </defs>
      <g>
       <use xlink:href="#mcdb1f37867" x="89.992974" y="541.433291" style="fill: #e6e6e6; stroke: #e6e6e6; stroke-width: 0.8"/>
      </g>
     </g>
     <g id="text_1">
      <!-- 8 B -->
      <g style="fill: #e6e6e6" transform="translate(82.612271 561.771885) scale(0.09 -0.09)">
       <defs>
        <path id="DejaVuSans-38" d="M 2034 2216 
Q 1584 2216 1326 1975 
Q 1069 1734 1069 1313 
Q 1069 891 1326 650 
Q 1584 409 2034 409 
Q 2484 409 2743 651 
Q 3003 894 3003 1313 
Q 3003 1734 2745 1975 
Q 2488 2216 2034 2216 
z
M 1403 2484 
Q 997 2584 770 2862 
Q 544 3141 544 3541 
Q 544 4100 942 4425 
Q 1341 4750 2034 4750 
Q 2731 4750 3128 4425 
Q 3525 4100 3525 3541 
Q 3525 3141 3298 2862 
Q 3072 2584 2669 2484 
Q 3125 2378 3379 2068 
Q 3634 1759 3634 1313 
Q 3634 634 3220 271 
Q 2806 -91 2034 -91 
Q 1263 -91 848 271 
Q 434 634 434 1313 
Q 434 1759 690 2068 
Q 947 2378 1403 2484 
z
M 1172 3481 
Q 1172 3119 1398 2916 
Q 1625 2713 2034 2713 
Q 2441 2713 2670 2916 
Q 2900 3119 2900 3481 
Q 2900 3844 2670 4047 
Q 2441 4250 2034 4250 
Q 1625 4250 1398 4047 
Q 1172 3844 1172 3481 
z
" transform="scale(0.015625)"/>
        <path id="DejaVuSans-20" transform="scale(0.015625)"/>
        <path id="DejaVuSans-42" d="M 1259 2228 
L 1259 519 
L 2272 519 
Q 2781 519 3026 730 
Q 3272 941 3272 1375 
Q 3272 1813 3026 2020 
Q 2781 2228 2272 2228 
L 1259 2228 
z
M 1259 4147 
L 1259 2741 
L 2194 2741 
Q 2656 2741 2882 2914 
Q 3109 3088 3109 3444 
Q 3109 3797 2882 3972 
Q 2656 4147 2194 4147 
L 1259 4147 
z
M 628 4666 
L 2241 4666 
Q 2963 4666 3353 4366 
Q 3744 4066 3744 3513 
Q 3744 3084 3544 2831 
Q 3344 2578 2956 2516 
Q 3422 2416 3680 2098 
Q 3938 1781 3938 1306 
Q 3938 681 3513 340 
Q 3088 0 2303 0 
L 628 0 
L 628 4666 
z
" transform="scale(0.015625)"/>
       </defs>
       <use xlink:href="#DejaVuSans-38"/>
       <use xlink:href="#DejaVuSans-20" transform="translate(63.623047 0)"/>
       <use xlink:href="#DejaVuSans-42" transform="translate(95.410156 0)"/>
      </g>
     </g>
    </g>
    <g id="xtick_2">
     <g id="line2d_3">
      <path d="M 147.304278 541.433291 
L 147.304278 64.029268 
" clip-path="url(#pa898f46773)" style="fill: none; stroke-dasharray: 0.7,1.155; stroke-dashoffset: 0; stroke: #3a3f4b; stroke-opacity: 0.45; stroke-width: 0.7"/>
     </g>
     <g id="line2d_4">
      <g>
       <use xlink:href="#mcdb1f37867" x="147.304278" y="541.433291" style="fill: #e6e6e6; stroke: #e6e6e6; stroke-width: 0.8"/>
      </g>
     </g>
     <g id="text_2">
      <!--  -->
      <g style="fill: #e6e6e6" transform="translate(147.304278 561.771885) scale(0.09 -0.09)"/>
      <!-- 16 B -->
      <g style="fill: #e6e6e6" transform="translate(137.06045 571.849916) scale(0.09 -0.09)">
       <defs>
        <path id="DejaVuSans-31" d="M 794 531 
L 1825 531 
L 1825 4091 
L 703 3866 
L 703 4441 
L 1819 4666 
L 2450 4666 
L 2450 531 
L 3481 531 
L 3481 0 
L 794 0 
L 794 531 
z
" transform="scale(0.015625)"/>
        <path id="DejaVuSans-36" d="M 2113 2584 
Q 1688 2584 1439 2293 
Q 1191 2003 1191 1497 
Q 1191 994 1439 701 
Q 1688 409 2113 409 
Q 2538 409 2786 701 
Q 3034 994 3034 1497 
Q 3034 2003 2786 2293 
Q 2538 2584 2113 2584 
z
M 3366 4563 
L 3366 3988 
Q 3128 4100 2886 4159 
Q 2644 4219 2406 4219 
Q 1781 4219 1451 3797 
Q 1122 3375 1075 2522 
Q 1259 2794 1537 2939 
Q 1816 3084 2150 3084 
Q 2853 3084 3261 2657 
Q 3669 2231 3669 1497 
Q 3669 778 3244 343 
Q 2819 -91 2113 -91 
Q 1303 -91 875 529 
Q 447 1150 447 2328 
Q 447 3434 972 4092 
Q 1497 4750 2381 4750 
Q 2619 4750 2861 4703 
Q 3103 4656 3366 4563 
z
" transform="scale(0.015625)"/>
       </defs>
       <use xlink:href="#DejaVuSans-31"/>
       <use xlink:href="#DejaVuSans-36" transform="translate(63.623047 0)"/>
       <use xlink:href="#DejaVuSans-20" transform="translate(127.246094 0)"/>
       <use xlink:href="#DejaVuSans-42" transform="translate(159.033203 0)"/>
      </g>
     </g>
    </g>
    <g id="xtick_3">
     <g id="line2d_5">
      <path d="M 204.615583 541.433291 
L 204.615583 64.029268 
" clip-path="url(#pa898f46773)" style="fill: none; stroke-dasharray: 0.7,1.155; stroke-dashoffset: 0; stroke: #3a3f4b; stroke-opacity: 0.45; stroke-width: 0.7"/>
     </g>
     <g id="line2d_6">
      <g>
       <use xlink:href="#mcdb1f37867" x="204.615583" y="541.433291" style="fill: #e6e6e6; stroke: #e6e6e6; stroke-width: 0.8"/>
      </g>
     </g>
     <g id="text_3">
      <!-- 32 B -->
      <g style="fill: #e6e6e6" transform="translate(194.371755 561.771885) scale(0.09 -0.09)">
       <defs>
        <path id="DejaVuSans-33" d="M 2597 2516 
Q 3050 2419 3304 2112 
Q 3559 1806 3559 1356 
Q 3559 666 3084 287 
Q 2609 -91 1734 -91 
Q 1441 -91 1130 -33 
Q 819 25 488 141 
L 488 750 
Q 750 597 1062 519 
Q 1375 441 1716 441 
Q 2309 441 2620 675 
Q 2931 909 2931 1356 
Q 2931 1769 2642 2001 
Q 2353 2234 1838 2234 
L 1294 2234 
L 1294 2753 
L 1863 2753 
Q 2328 2753 2575 2939 
Q 2822 3125 2822 3475 
Q 2822 3834 2567 4026 
Q 2313 4219 1838 4219 
Q 1578 4219 1281 4162 
Q 984 4106 628 3988 
L 628 4550 
Q 988 4650 1302 4700 
Q 1616 4750 1894 4750 
Q 2613 4750 3031 4423 
Q 3450 4097 3450 3541 
Q 3450 3153 3228 2886 
Q 3006 2619 2597 2516 
z
" transform="scale(0.015625)"/>
        <path id="DejaVuSans-32" d="M 1228 531 
L 3431 531 
L 3431 0 
L 469 0 
L 469 531 
Q 828 903 1448 1529 
Q 2069 2156 2228 2338 
Q 2531 2678 2651 2914 
Q 2772 3150 2772 3378 
Q 2772 3750 2511 3984 
Q 2250 4219 1831 4219 
Q 1534 4219 1204 4116 
Q 875 4013 500 3803 
L 500 4441 
Q 881 4594 1212 4672 
Q 1544 4750 1819 4750 
Q 2544 4750 2975 4387 
Q 3406 4025 3406 3419 
Q 3406 3131 3298 2873 
Q 3191 2616 2906 2266 
Q 2828 2175 2409 1742 
Q 1991 1309 1228 531 
z
" transform="scale(0.015625)"/>
       </defs>
       <use xlink:href="#DejaVuSans-33"/>
       <use xlink:href="#DejaVuSans-32" transform="translate(63.623047 0)"/>
       <use xlink:href="#DejaVuSans-20" transform="translate(127.246094 0)"/>
       <use xlink:href="#DejaVuSans-42" transform="translate(159.033203 0)"/>
      </g>
     </g>
    </g>
    <g id="xtick_4">
     <g id="line2d_7">
      <path d="M 261.926888 541.433291 
L 261.926888 64.029268 
" clip-path="url(#pa898f46773)" style="fill: none; stroke-dasharray: 0.7,1.155; stroke-dashoffset: 0; stroke: #3a3f4b; stroke-opacity: 0.45; stroke-width: 0.7"/>
     </g>
     <g id="line2d_8">
      <g>
       <use xlink:href="#mcdb1f37867" x="261.926888" y="541.433291" style="fill: #e6e6e6; stroke: #e6e6e6; stroke-width: 0.8"/>
      </g>
     </g>
     <g id="text_4">
      <!--  -->
      <g style="fill: #e6e6e6" transform="translate(261.926888 561.771885) scale(0.09 -0.09)"/>
      <!-- 64 B -->
      <g style="fill: #e6e6e6" transform="translate(251.683059 571.849916) scale(0.09 -0.09)">
       <defs>
        <path id="DejaVuSans-34" d="M 2419 4116 
L 825 1625 
L 2419 1625 
L 2419 4116 
z
M 2253 4666 
L 3047 4666 
L 3047 1625 
L 3713 1625 
L 3713 1100 
L 3047 1100 
L 3047 0 
L 2419 0 
L 2419 1100 
L 313 1100 
L 313 1709 
L 2253 4666 
z
" transform="scale(0.015625)"/>
       </defs>
       <use xlink:href="#DejaVuSans-36"/>
       <use xlink:href="#DejaVuSans-34" transform="translate(63.623047 0)"/>
       <use xlink:href="#DejaVuSans-20" transform="translate(127.246094 0)"/>
       <use xlink:href="#DejaVuSans-42" transform="translate(159.033203 0)"/>
      </g>
     </g>
    </g>
    <g id="xtick_5">
     <g id="line2d_9">
      <path d="M 319.238192 541.433291 
L 319.238192 64.029268 
" clip-path="url(#pa898f46773)" style="fill: none; stroke-dasharray: 0.7,1.155; stroke-dashoffset: 0; stroke: #3a3f4b; stroke-opacity: 0.45; stroke-width: 0.7"/>
     </g>
     <g id="line2d_10">
      <g>
       <use xlink:href="#mcdb1f37867" x="319.238192" y="541.433291" style="fill: #e6e6e6; stroke: #e6e6e6; stroke-width: 0.8"/>
      </g>
     </g>
     <g id="text_5">
      <!-- 128 B -->
      <g style="fill: #e6e6e6" transform="translate(306.131239 561.771885) scale(0.09 -0.09)">
       <use xlink:href="#DejaVuSans-31"/>
       <use xlink:href="#DejaVuSans-32" transform="translate(63.623047 0)"/>
       <use xlink:href="#DejaVuSans-38" transform="translate(127.246094 0)"/>
       <use xlink:href="#DejaVuSans-20" transform="translate(190.869141 0)"/>
       <use xlink:href="#DejaVuSans-42" transform="translate(222.65625 0)"/>
      </g>
     </g>
    </g>
    <g id="xtick_6">
     <g id="line2d_11">
      <path d="M 376.549497 541.433291 
L 376.549497 64.029268 
" clip-path="url(#pa898f46773)" style="fill: none; stroke-dasharray: 0.7,1.155; stroke-dashoffset: 0; stroke: #3a3f4b; stroke-opacity: 0.45; stroke-width: 0.7"/>
     </g>
     <g id="line2d_12">
      <g>
       <use xlink:href="#mcdb1f37867" x="376.549497" y="541.433291" style="fill: #e6e6e6; stroke: #e6e6e6; stroke-width: 0.8"/>
      </g>
     </g>
     <g id="text_6">
      <!--  -->
      <g style="fill: #e6e6e6" transform="translate(376.549497 561.771885) scale(0.09 -0.09)"/>
      <!-- 256 B -->
      <g style="fill: #e6e6e6" transform="translate(363.442543 571.849916) scale(0.09 -0.09)">
       <defs>
        <path id="DejaVuSans-35" d="M 691 4666 
L 3169 4666 
L 3169 4134 
L 1269 4134 
L 1269 2991 
Q 1406 3038 1543 3061 
Q 1681 3084 1819 3084 
Q 2600 3084 3056 2656 
Q 3513 2228 3513 1497 
Q 3513 744 3044 326 
Q 2575 -91 1722 -91 
Q 1428 -91 1123 -41 
Q 819 9 494 109 
L 494 744 
Q 775 591 1075 516 
Q 1375 441 1709 441 
Q 2250 441 2565 725 
Q 2881 1009 2881 1497 
Q 2881 1984 2565 2268 
Q 2250 2553 1709 2553 
Q 1456 2553 1204 2497 
Q 953 2441 691 2322 
L 691 4666 
z
" transform="scale(0.015625)"/>
       </defs>
       <use xlink:href="#DejaVuSans-32"/>
       <use xlink:href="#DejaVuSans-35" transform="translate(63.623047 0)"/>
       <use xlink:href="#DejaVuSans-36" transform="translate(127.246094 0)"/>
       <use xlink:href="#DejaVuSans-20" transform="translate(190.869141 0)"/>
       <use xlink:href="#DejaVuSans-42" transform="translate(222.65625 0)"/>
      </g>
     </g>
    </g>
    <g id="xtick_7">
     <g id="line2d_13">
      <path d="M 433.860801 541.433291 
L 433.860801 64.029268 
" clip-path="url(#pa898f46773)" style="fill: none; stroke-dasharray: 0.7,1.155; stroke-dashoffset: 0; stroke: #3a3f4b; stroke-opacity: 0.45; stroke-width: 0.7"/>
     </g>
     <g id="line2d_14">
      <g>
       <use xlink:href="#mcdb1f37867" x="433.860801" y="541.433291" style="fill: #e6e6e6; stroke: #e6e6e6; stroke-width: 0.8"/>
      </g>
     </g>
     <g id="text_7">
      <!-- 512 B -->
      <g style="fill: #e6e6e6" transform="translate(420.753848 561.771885) scale(0.09 -0.09)">
       <use xlink:href="#DejaVuSans-35"/>
       <use xlink:href="#DejaVuSans-31" transform="translate(63.623047 0)"/>
       <use xlink:href="#DejaVuSans-32" transform="translate(127.246094 0)"/>
       <use xlink:href="#DejaVuSans-20" transform="translate(190.869141 0)"/>
       <use xlink:href="#DejaVuSans-42" transform="translate(222.65625 0)"/>
      </g>
     </g>
    </g>
    <g id="xtick_8">
     <g id="line2d_15">
      <path d="M 491.172106 541.433291 
L 491.172106 64.029268 
" clip-path="url(#pa898f46773)" style="fill: none; stroke-dasharray: 0.7,1.155; stroke-dashoffset: 0; stroke: #3a3f4b; stroke-opacity: 0.45; stroke-width: 0.7"/>
     </g>
     <g id="line2d_16">
      <g>
       <use xlink:href="#mcdb1f37867" x="491.172106" y="541.433291" style="fill: #e6e6e6; stroke: #e6e6e6; stroke-width: 0.8"/>
      </g>
     </g>
     <g id="text_8">
      <!--  -->
      <g style="fill: #e6e6e6" transform="translate(491.172106 561.771885) scale(0.09 -0.09)"/>
      <!-- 1 KiB -->
      <g style="fill: #e6e6e6" transform="translate(479.590231 571.849916) scale(0.09 -0.09)">
       <defs>
        <path id="DejaVuSans-4b" d="M 628 4666 
L 1259 4666 
L 1259 2694 
L 3353 4666 
L 4166 4666 
L 1850 2491 
L 4331 0 
L 3500 0 
L 1259 2247 
L 1259 0 
L 628 0 
L 628 4666 
z
" transform="scale(0.015625)"/>
        <path id="DejaVuSans-69" d="M 603 3500 
L 1178 3500 
L 1178 0 
L 603 0 
L 603 3500 
z
M 603 4863 
L 1178 4863 
L 1178 4134 
L 603 4134 
L 603 4863 
z
" transform="scale(0.015625)"/>
       </defs>
       <use xlink:href="#DejaVuSans-31"/>
       <use xlink:href="#DejaVuSans-20" transform="translate(63.623047 0)"/>
       <use xlink:href="#DejaVuSans-4b" transform="translate(95.410156 0)"/>
       <use xlink:href="#DejaVuSans-69" transform="translate(160.986328 0)"/>
       <use xlink:href="#DejaVuSans-42" transform="translate(188.769531 0)"/>
      </g>
     </g>
    </g>
    <g id="xtick_9">
     <g id="line2d_17">
      <path d="M 548.48341 541.433291 
L 548.48341 64.029268 
" clip-path="url(#pa898f46773)" style="fill: none; stroke-dasharray: 0.7,1.155; stroke-dashoffset: 0; stroke: #3a3f4b; stroke-opacity: 0.45; stroke-width: 0.7"/>
     </g>
     <g id="line2d_18">
      <g>
       <use xlink:href="#mcdb1f37867" x="548.48341" y="541.433291" style="fill: #e6e6e6; stroke: #e6e6e6; stroke-width: 0.8"/>
      </g>
     </g>
     <g id="text_9">
      <!-- 2 KiB -->
      <g style="fill: #e6e6e6" transform="translate(536.901535 561.771885) scale(0.09 -0.09)">
       <use xlink:href="#DejaVuSans-32"/>
       <use xlink:href="#DejaVuSans-20" transform="translate(63.623047 0)"/>
       <use xlink:href="#DejaVuSans-4b" transform="translate(95.410156 0)"/>
       <use xlink:href="#DejaVuSans-69" transform="translate(160.986328 0)"/>
       <use xlink:href="#DejaVuSans-42" transform="translate(188.769531 0)"/>
      </g>
     </g>
    </g>
    <g id="xtick_10">
     <g id="line2d_19">
      <path d="M 605.794715 541.433291 
L 605.794715 64.029268 
" clip-path="url(#pa898f46773)" style="fill: none; stroke-dasharray: 0.7,1.155; stroke-dashoffset: 0; stroke: #3a3f4b; stroke-opacity: 0.45; stroke-width: 0.7"/>
     </g>
     <g id="line2d_20">
      <g>
       <use xlink:href="#mcdb1f37867" x="605.794715" y="541.433291" style="fill: #e6e6e6; stroke: #e6e6e6; stroke-width: 0.8"/>
      </g>
     </g>
     <g id="text_10">
      <!--  -->
      <g style="fill: #e6e6e6" transform="translate(605.794715 561.771885) scale(0.09 -0.09)"/>
      <!-- 4 KiB -->
      <g style="fill: #e6e6e6" transform="translate(594.21284 571.849916) scale(0.09 -0.09)">
       <use xlink:href="#DejaVuSans-34"/>
       <use xlink:href="#DejaVuSans-20" transform="translate(63.623047 0)"/>
       <use xlink:href="#DejaVuSans-4b" transform="translate(95.410156 0)"/>
       <use xlink:href="#DejaVuSans-69" transform="translate(160.986328 0)"/>
       <use xlink:href="#DejaVuSans-42" transform="translate(188.769531 0)"/>
      </g>
     </g>
    </g>
    <g id="xtick_11">
     <g id="line2d_21">
      <path d="M 663.106019 541.433291 
L 663.106019 64.029268 
" clip-path="url(#pa898f46773)" style="fill: none; stroke-dasharray: 0.7,1.155; stroke-dashoffset: 0; stroke: #3a3f4b; stroke-opacity: 0.45; stroke-width: 0.7"/>
     </g>
     <g id="line2d_22">
      <g>
       <use xlink:href="#mcdb1f37867" x="663.106019" y="541.433291" style="fill: #e6e6e6; stroke: #e6e6e6; stroke-width: 0.8"/>
      </g>
     </g>
     <g id="text_11">
      <!-- 8 KiB -->
      <g style="fill: #e6e6e6" transform="translate(651.524144 561.771885) scale(0.09 -0.09)">
       <use xlink:href="#DejaVuSans-38"/>
       <use xlink:href="#DejaVuSans-20" transform="translate(63.623047 0)"/>
       <use xlink:href="#DejaVuSans-4b" transform="translate(95.410156 0)"/>
       <use xlink:href="#DejaVuSans-69" transform="translate(160.986328 0)"/>
       <use xlink:href="#DejaVuSans-42" transform="translate(188.769531 0)"/>
      </g>
     </g>
    </g>
    <g id="xtick_12">
     <g id="line2d_23">
      <path d="M 720.417324 541.433291 
L 720.417324 64.029268 
" clip-path="url(#pa898f46773)" style="fill: none; stroke-dasharray: 0.7,1.155; stroke-dashoffset: 0; stroke: #3a3f4b; stroke-opacity: 0.45; stroke-width: 0.7"/>
     </g>
     <g id="line2d_24">
      <g>
       <use xlink:href="#mcdb1f37867" x="720.417324" y="541.433291" style="fill: #e6e6e6; stroke: #e6e6e6; stroke-width: 0.8"/>
      </g>
     </g>
     <g id="text_12">
      <!--  -->
      <g style="fill: #e6e6e6" transform="translate(720.417324 561.771885) scale(0.09 -0.09)"/>
      <!-- 16 KiB -->
      <g style="fill: #e6e6e6" transform="translate(705.972324 571.849916) scale(0.09 -0.09)">
       <use xlink:href="#DejaVuSans-31"/>
       <use xlink:href="#DejaVuSans-36" transform="translate(63.623047 0)"/>
       <use xlink:href="#DejaVuSans-20" transform="translate(127.246094 0)"/>
       <use xlink:href="#DejaVuSans-4b" transform="translate(159.033203 0)"/>
       <use xlink:href="#DejaVuSans-69" transform="translate(224.609375 0)"/>
       <use xlink:href="#DejaVuSans-42" transform="translate(252.392578 0)"/>
      </g>
     </g>
    </g>
    <g id="xtick_13">
     <g id="line2d_25">
      <path d="M 777.728628 541.433291 
L 777.728628 64.029268 
" clip-path="url(#pa898f46773)" style="fill: none; stroke-dasharray: 0.7,1.155; stroke-dashoffset: 0; stroke: #3a3f4b; stroke-opacity: 0.45; stroke-width: 0.7"/>
     </g>
     <g id="line2d_26">
      <g>
       <use xlink:href="#mcdb1f37867" x="777.728628" y="541.433291" style="fill: #e6e6e6; stroke: #e6e6e6; stroke-width: 0.8"/>
      </g>
     </g>
     <g id="text_13">
      <!-- 32 KiB -->
      <g style="fill: #e6e6e6" transform="translate(763.283628 561.771885) scale(0.09 -0.09)">
       <use xlink:href="#DejaVuSans-33"/>
       <use xlink:href="#DejaVuSans-32" transform="translate(63.623047 0)"/>
       <use xlink:href="#DejaVuSans-20" transform="translate(127.246094 0)"/>
       <use xlink:href="#DejaVuSans-4b" transform="translate(159.033203 0)"/>
       <use xlink:href="#DejaVuSans-69" transform="translate(224.609375 0)"/>
       <use xlink:href="#DejaVuSans-42" transform="translate(252.392578 0)"/>
      </g>
     </g>
    </g>
    <g id="xtick_14">
     <g id="line2d_27">
      <path d="M 835.039933 541.433291 
L 835.039933 64.029268 
" clip-path="url(#pa898f46773)" style="fill: none; stroke-dasharray: 0.7,1.155; stroke-dashoffset: 0; stroke: #3a3f4b; stroke-opacity: 0.45; stroke-width: 0.7"/>
     </g>
     <g id="line2d_28">
      <g>
       <use xlink:href="#mcdb1f37867" x="835.039933" y="541.433291" style="fill: #e6e6e6; stroke: #e6e6e6; stroke-width: 0.8"/>
      </g>
     </g>
     <g id="text_14">
      <!--  -->
      <g style="fill: #e6e6e6" transform="translate(835.039933 561.771885) scale(0.09 -0.09)"/>
      <!-- 64 KiB -->
      <g style="fill: #e6e6e6" transform="translate(820.594933 571.849916) scale(0.09 -0.09)">
       <use xlink:href="#DejaVuSans-36"/>
       <use xlink:href="#DejaVuSans-34" transform="translate(63.623047 0)"/>
       <use xlink:href="#DejaVuSans-20" transform="translate(127.246094 0)"/>
       <use xlink:href="#DejaVuSans-4b" transform="translate(159.033203 0)"/>
       <use xlink:href="#DejaVuSans-69" transform="translate(224.609375 0)"/>
       <use xlink:href="#DejaVuSans-42" transform="translate(252.392578 0)"/>
      </g>
     </g>
    </g>
    <g id="xtick_15">
     <g id="line2d_29">
      <path d="M 892.351237 541.433291 
L 892.351237 64.029268 
" clip-path="url(#pa898f46773)" style="fill: none; stroke-dasharray: 0.7,1.155; stroke-dashoffset: 0; stroke: #3a3f4b; stroke-opacity: 0.45; stroke-width: 0.7"/>
     </g>
     <g id="line2d_30">
      <g>
       <use xlink:href="#mcdb1f37867" x="892.351237" y="541.433291" style="fill: #e6e6e6; stroke: #e6e6e6; stroke-width: 0.8"/>
      </g>
     </g>
     <g id="text_15">
      <!-- 128 KiB -->
      <g style="fill: #e6e6e6" transform="translate(875.043112 561.771885) scale(0.09 -0.09)">
       <use xlink:href="#DejaVuSans-31"/>
       <use xlink:href="#DejaVuSans-32" transform="translate(63.623047 0)"/>
       <use xlink:href="#DejaVuSans-38" transform="translate(127.246094 0)"/>
       <use xlink:href="#DejaVuSans-20" transform="translate(190.869141 0)"/>
       <use xlink:href="#DejaVuSans-4b" transform="translate(222.65625 0)"/>
       <use xlink:href="#DejaVuSans-69" transform="translate(288.232422 0)"/>
       <use xlink:href="#DejaVuSans-42" transform="translate(316.015625 0)"/>
      </g>
     </g>
    </g>
    <g id="xtick_16">
     <g id="line2d_31">
      <path d="M 949.662542 541.433291 
L 949.662542 64.029268 
" clip-path="url(#pa898f46773)" style="fill: none; stroke-dasharray: 0.7,1.155; stroke-dashoffset: 0; stroke: #3a3f4b; stroke-opacity: 0.45; stroke-width: 0.7"/>
     </g>
     <g id="line2d_32">
      <g>
       <use xlink:href="#mcdb1f37867" x="949.662542" y="541.433291" style="fill: #e6e6e6; stroke: #e6e6e6; stroke-width: 0.8"/>
      </g>
     </g>
     <g id="text_16">
      <!--  -->
      <g style="fill: #e6e6e6" transform="translate(949.662542 561.771885) scale(0.09 -0.09)"/>
      <!-- 256 KiB -->
      <g style="fill: #e6e6e6" transform="translate(932.354417 571.849916) scale(0.09 -0.09)">
       <use xlink:href="#DejaVuSans-32"/>
       <use xlink:href="#DejaVuSans-35" transform="translate(63.623047 0)"/>
       <use xlink:href="#DejaVuSans-36" transform="translate(127.246094 0)"/>
       <use xlink:href="#DejaVuSans-20" transform="translate(190.869141 0)"/>
       <use xlink:href="#DejaVuSans-4b" transform="translate(222.65625 0)"/>
       <use xlink:href="#DejaVuSans-69" transform="translate(288.232422 0)"/>
       <use xlink:href="#DejaVuSans-42" transform="translate(316.015625 0)"/>
      </g>
     </g>
    </g>
    <g id="xtick_17">
     <g id="line2d_33">
      <path d="M 1006.973847 541.433291 
L 1006.973847 64.029268 
" clip-path="url(#pa898f46773)" style="fill: none; stroke-dasharray: 0.7,1.155; stroke-dashoffset: 0; stroke: #3a3f4b; stroke-opacity: 0.45; stroke-width: 0.7"/>
     </g>
     <g id="line2d_34">
      <g>
       <use xlink:href="#mcdb1f37867" x="1006.973847" y="541.433291" style="fill: #e6e6e6; stroke: #e6e6e6; stroke-width: 0.8"/>
      </g>
     </g>
     <g id="text_17">
      <!-- 512 KiB -->
      <g style="fill: #e6e6e6" transform="translate(989.665722 561.771885) scale(0.09 -0.09)">
       <use xlink:href="#DejaVuSans-35"/>
       <use xlink:href="#DejaVuSans-31" transform="translate(63.623047 0)"/>
       <use xlink:href="#DejaVuSans-32" transform="translate(127.246094 0)"/>
       <use xlink:href="#DejaVuSans-20" transform="translate(190.869141 0)"/>
       <use xlink:href="#DejaVuSans-4b" transform="translate(222.65625 0)"/>
       <use xlink:href="#DejaVuSans-69" transform="translate(288.232422 0)"/>
       <use xlink:href="#DejaVuSans-42" transform="translate(316.015625 0)"/>
      </g>
     </g>
    </g>
    <g id="xtick_18">
     <g id="line2d_35">
      <path d="M 1064.285151 541.433291 
L 1064.285151 64.029268 
" clip-path="url(#pa898f46773)" style="fill: none; stroke-dasharray: 0.7,1.155; stroke-dashoffset: 0; stroke: #3a3f4b; stroke-opacity: 0.45; stroke-width: 0.7"/>
     </g>
     <g id="line2d_36">
      <g>
       <use xlink:href="#mcdb1f37867" x="1064.285151" y="541.433291" style="fill: #e6e6e6; stroke: #e6e6e6; stroke-width: 0.8"/>
      </g>
     </g>
     <g id="text_18">
      <!--  -->
      <g style="fill: #e6e6e6" transform="translate(1064.285151 561.771885) scale(0.09 -0.09)"/>
      <!-- 1 MiB -->
      <g style="fill: #e6e6e6" transform="translate(1051.771636 571.849916) scale(0.09 -0.09)">
       <defs>
        <path id="DejaVuSans-4d" d="M 628 4666 
L 1569 4666 
L 2759 1491 
L 3956 4666 
L 4897 4666 
L 4897 0 
L 4281 0 
L 4281 4097 
L 3078 897 
L 2444 897 
L 1241 4097 
L 1241 0 
L 628 0 
L 628 4666 
z
" transform="scale(0.015625)"/>
       </defs>
       <use xlink:href="#DejaVuSans-31"/>
       <use xlink:href="#DejaVuSans-20" transform="translate(63.623047 0)"/>
       <use xlink:href="#DejaVuSans-4d" transform="translate(95.410156 0)"/>
       <use xlink:href="#DejaVuSans-69" transform="translate(181.689453 0)"/>
       <use xlink:href="#DejaVuSans-42" transform="translate(209.472656 0)"/>
      </g>
     </g>
    </g>
    <g id="text_19">
     <!-- payload size -->
     <g style="fill: #e6e6e6" transform="translate(545.971094 585.320072) scale(0.1 -0.1)">
      <defs>
       <path id="DejaVuSans-70" d="M 1159 525 
L 1159 -1331 
L 581 -1331 
L 581 3500 
L 1159 3500 
L 1159 2969 
Q 1341 3281 1617 3432 
Q 1894 3584 2278 3584 
Q 2916 3584 3314 3078 
Q 3713 2572 3713 1747 
Q 3713 922 3314 415 
Q 2916 -91 2278 -91 
Q 1894 -91 1617 61 
Q 1341 213 1159 525 
z
M 3116 1747 
Q 3116 2381 2855 2742 
Q 2594 3103 2138 3103 
Q 1681 3103 1420 2742 
Q 1159 2381 1159 1747 
Q 1159 1113 1420 752 
Q 1681 391 2138 391 
Q 2594 391 2855 752 
Q 3116 1113 3116 1747 
z
" transform="scale(0.015625)"/>
       <path id="DejaVuSans-61" d="M 2194 1759 
Q 1497 1759 1228 1600 
Q 959 1441 959 1056 
Q 959 750 1161 570 
Q 1363 391 1709 391 
Q 2188 391 2477 730 
Q 2766 1069 2766 1631 
L 2766 1759 
L 2194 1759 
z
M 3341 1997 
L 3341 0 
L 2766 0 
L 2766 531 
Q 2569 213 2275 61 
Q 1981 -91 1556 -91 
Q 1019 -91 701 211 
Q 384 513 384 1019 
Q 384 1609 779 1909 
Q 1175 2209 1959 2209 
L 2766 2209 
L 2766 2266 
Q 2766 2663 2505 2880 
Q 2244 3097 1772 3097 
Q 1472 3097 1187 3025 
Q 903 2953 641 2809 
L 641 3341 
Q 956 3463 1253 3523 
Q 1550 3584 1831 3584 
Q 2591 3584 2966 3190 
Q 3341 2797 3341 1997 
z
" transform="scale(0.015625)"/>
       <path id="DejaVuSans-79" d="M 2059 -325 
Q 1816 -950 1584 -1140 
Q 1353 -1331 966 -1331 
L 506 -1331 
L 506 -850 
L 844 -850 
Q 1081 -850 1212 -737 
Q 1344 -625 1503 -206 
L 1606 56 
L 191 3500 
L 800 3500 
L 1894 763 
L 2988 3500 
L 3597 3500 
L 2059 -325 
z
" transform="scale(0.015625)"/>
       <path id="DejaVuSans-6c" d="M 603 4863 
L 1178 4863 
L 1178 0 
L 603 0 
L 603 4863 
z
" transform="scale(0.015625)"/>
       <path id="DejaVuSans-6f" d="M 1959 3097 
Q 1497 3097 1228 2736 
Q 959 2375 959 1747 
Q 959 1119 1226 758 
Q 1494 397 1959 397 
Q 2419 397 2687 759 
Q 2956 1122 2956 1747 
Q 2956 2369 2687 2733 
Q 2419 3097 1959 3097 
z
M 1959 3584 
Q 2709 3584 3137 3096 
Q 3566 2609 3566 1747 
Q 3566 888 3137 398 
Q 2709 -91 1959 -91 
Q 1206 -91 779 398 
Q 353 888 353 1747 
Q 353 2609 779 3096 
Q 1206 3584 1959 3584 
z
" transform="scale(0.015625)"/>
       <path id="DejaVuSans-64" d="M 2906 2969 
L 2906 4863 
L 3481 4863 
L 3481 0 
L 2906 0 
L 2906 525 
Q 2725 213 2448 61 
Q 2172 -91 1784 -91 
Q 1150 -91 751 415 
Q 353 922 353 1747 
Q 353 2572 751 3078 
Q 1150 3584 1784 3584 
Q 2172 3584 2448 3432 
Q 2725 3281 2906 2969 
z
M 947 1747 
Q 947 1113 1208 752 
Q 1469 391 1925 391 
Q 2381 391 2643 752 
Q 2906 1113 2906 1747 
Q 2906 2381 2643 2742 
Q 2381 3103 1925 3103 
Q 1469 3103 1208 2742 
Q 947 2381 947 1747 
z
" transform="scale(0.015625)"/>
       <path id="DejaVuSans-73" d="M 2834 3397 
L 2834 2853 
Q 2591 2978 2328 3040 
Q 2066 3103 1784 3103 
Q 1356 3103 1142 2972 
Q 928 2841 928 2578 
Q 928 2378 1081 2264 
Q 1234 2150 1697 2047 
L 1894 2003 
Q 2506 1872 2764 1633 
Q 3022 1394 3022 966 
Q 3022 478 2636 193 
Q 2250 -91 1575 -91 
Q 1294 -91 989 -36 
Q 684 19 347 128 
L 347 722 
Q 666 556 975 473 
Q 1284 391 1588 391 
Q 1994 391 2212 530 
Q 2431 669 2431 922 
Q 2431 1156 2273 1281 
Q 2116 1406 1581 1522 
L 1381 1569 
Q 847 1681 609 1914 
Q 372 2147 372 2553 
Q 372 3047 722 3315 
Q 1072 3584 1716 3584 
Q 2034 3584 2315 3537 
Q 2597 3491 2834 3397 
z
" transform="scale(0.015625)"/>
       <path id="DejaVuSans-7a" d="M 353 3500 
L 3084 3500 
L 3084 2975 
L 922 459 
L 3084 459 
L 3084 0 
L 275 0 
L 275 525 
L 2438 3041 
L 353 3041 
L 353 3500 
z
" transform="scale(0.015625)"/>
       <path id="DejaVuSans-65" d="M 3597 1894 
L 3597 1613 
L 953 1613 
Q 991 1019 1311 708 
Q 1631 397 2203 397 
Q 2534 397 2845 478 
Q 3156 559 3463 722 
L 3463 178 
Q 3153 47 2828 -22 
Q 2503 -91 2169 -91 
Q 1331 -91 842 396 
Q 353 884 353 1716 
Q 353 2575 817 3079 
Q 1281 3584 2069 3584 
Q 2775 3584 3186 3129 
Q 3597 2675 3597 1894 
z
M 3022 2063 
Q 3016 2534 2758 2815 
Q 2500 3097 2075 3097 
Q 1594 3097 1305 2825 
Q 1016 2553 972 2059 
L 3022 2063 
z
" transform="scale(0.015625)"/>
      </defs>
      <use xlink:href="#DejaVuSans-70"/>
      <use xlink:href="#DejaVuSans-61" transform="translate(63.476562 0)"/>
      <use xlink:href="#DejaVuSans-79" transform="translate(124.755859 0)"/>
      <use xlink:href="#DejaVuSans-6c" transform="translate(183.935547 0)"/>
      <use xlink:href="#DejaVuSans-6f" transform="translate(211.71875 0)"/>
      <use xlink:href="#DejaVuSans-61" transform="translate(272.900391 0)"/>
      <use xlink:href="#DejaVuSans-64" transform="translate(334.179688 0)"/>
      <use xlink:href="#DejaVuSans-20" transform="translate(397.65625 0)"/>
      <use xlink:href="#DejaVuSans-73" transform="translate(429.443359 0)"/>
      <use xlink:href="#DejaVuSans-69" transform="translate(481.542969 0)"/>
      <use xlink:href="#DejaVuSans-7a" transform="translate(509.326172 0)"/>
      <use xlink:href="#DejaVuSans-65" transform="translate(561.816406 0)"/>
     </g>
    </g>
   </g>
   <g id="matplotlib.axis_2">
    <g id="ytick_1">
     <g id="line2d_37">
      <path d="M 41.278365 468.237556 
L 1112.99976 468.237556 
" clip-path="url(#pa898f46773)" style="fill: none; stroke-dasharray: 3.33,1.44; stroke-dashoffset: 0; stroke: #3a3f4b; stroke-opacity: 0.9; stroke-width: 0.9"/>
     </g>
     <g id="line2d_38">
      <defs>
       <path id="m9459def40c" d="M 0 0 
L -3.5 0 
" style="stroke: #e6e6e6; stroke-width: 0.8"/>
      </defs>
      <g>
       <use xlink:href="#m9459def40c" x="41.278365" y="468.237556" style="fill: #e6e6e6; stroke: #e6e6e6; stroke-width: 0.8"/>
      </g>
     </g>
     <g id="text_20">
      <!-- $\mathdefault{10^{5}}$ -->
      <g style="fill: #e6e6e6" transform="translate(16.678365 472.036774) scale(0.1 -0.1)">
       <defs>
        <path id="DejaVuSans-30" d="M 2034 4250 
Q 1547 4250 1301 3770 
Q 1056 3291 1056 2328 
Q 1056 1369 1301 889 
Q 1547 409 2034 409 
Q 2525 409 2770 889 
Q 3016 1369 3016 2328 
Q 3016 3291 2770 3770 
Q 2525 4250 2034 4250 
z
M 2034 4750 
Q 2819 4750 3233 4129 
Q 3647 3509 3647 2328 
Q 3647 1150 3233 529 
Q 2819 -91 2034 -91 
Q 1250 -91 836 529 
Q 422 1150 422 2328 
Q 422 3509 836 4129 
Q 1250 4750 2034 4750 
z
" transform="scale(0.015625)"/>
       </defs>
       <use xlink:href="#DejaVuSans-31" transform="translate(0 0.684375)"/>
       <use xlink:href="#DejaVuSans-30" transform="translate(63.623047 0.684375)"/>
       <use xlink:href="#DejaVuSans-35" transform="translate(128.203125 38.965625) scale(0.7)"/>
      </g>
     </g>
    </g>
    <g id="ytick_2">
     <g id="line2d_39">
      <path d="M 41.278365 328.960278 
L 1112.99976 328.960278 
" clip-path="url(#pa898f46773)" style="fill: none; stroke-dasharray: 3.33,1.44; stroke-dashoffset: 0; stroke: #3a3f4b; stroke-opacity: 0.9; stroke-width: 0.9"/>
     </g>
     <g id="line2d_40">
      <g>
       <use xlink:href="#m9459def40c" x="41.278365" y="328.960278" style="fill: #e6e6e6; stroke: #e6e6e6; stroke-width: 0.8"/>
      </g>
     </g>
     <g id="text_21">
      <!-- $\mathdefault{10^{6}}$ -->
      <g style="fill: #e6e6e6" transform="translate(16.678365 332.759496) scale(0.1 -0.1)">
       <use xlink:href="#DejaVuSans-31" transform="translate(0 0.765625)"/>
       <use xlink:href="#DejaVuSans-30" transform="translate(63.623047 0.765625)"/>
       <use xlink:href="#DejaVuSans-36" transform="translate(128.203125 39.046875) scale(0.7)"/>
      </g>
     </g>
    </g>
    <g id="ytick_3">
     <g id="line2d_41">
      <path d="M 41.278365 189.683 
L 1112.99976 189.683 
" clip-path="url(#pa898f46773)" style="fill: none; stroke-dasharray: 3.33,1.44; stroke-dashoffset: 0; stroke: #3a3f4b; stroke-opacity: 0.9; stroke-width: 0.9"/>
     </g>
     <g id="line2d_42">
      <g>
       <use xlink:href="#m9459def40c" x="41.278365" y="189.683" style="fill: #e6e6e6; stroke: #e6e6e6; stroke-width: 0.8"/>
      </g>
     </g>
     <g id="text_22">
      <!-- $\mathdefault{10^{7}}$ -->
      <g style="fill: #e6e6e6" transform="translate(16.678365 193.482218) scale(0.1 -0.1)">
       <defs>
        <path id="DejaVuSans-37" d="M 525 4666 
L 3525 4666 
L 3525 4397 
L 1831 0 
L 1172 0 
L 2766 4134 
L 525 4134 
L 525 4666 
z
" transform="scale(0.015625)"/>
       </defs>
       <use xlink:href="#DejaVuSans-31" transform="translate(0 0.684375)"/>
       <use xlink:href="#DejaVuSans-30" transform="translate(63.623047 0.684375)"/>
       <use xlink:href="#DejaVuSans-37" transform="translate(128.203125 38.965625) scale(0.7)"/>
      </g>
     </g>
    </g>
    <g id="ytick_4">
     <g id="line2d_43">
      <defs>
       <path id="m8eac54df8f" d="M 0 0 
L -2 0 
" style="stroke: #e6e6e6; stroke-width: 0.6"/>
      </defs>
      <g>
       <use xlink:href="#m8eac54df8f" x="41.278365" y="541.062684" style="fill: #e6e6e6; stroke: #e6e6e6; stroke-width: 0.6"/>
      </g>
     </g>
    </g>
    <g id="ytick_5">
     <g id="line2d_44">
      <g>
       <use xlink:href="#m8eac54df8f" x="41.278365" y="523.661557" style="fill: #e6e6e6; stroke: #e6e6e6; stroke-width: 0.6"/>
      </g>
     </g>
    </g>
    <g id="ytick_6">
     <g id="line2d_45">
      <g>
       <use xlink:href="#m8eac54df8f" x="41.278365" y="510.164194" style="fill: #e6e6e6; stroke: #e6e6e6; stroke-width: 0.6"/>
      </g>
     </g>
    </g>
    <g id="ytick_7">
     <g id="line2d_46">
      <g>
       <use xlink:href="#m8eac54df8f" x="41.278365" y="499.136046" style="fill: #e6e6e6; stroke: #e6e6e6; stroke-width: 0.6"/>
      </g>
     </g>
    </g>
    <g id="ytick_8">
     <g id="line2d_47">
      <g>
       <use xlink:href="#m8eac54df8f" x="41.278365" y="489.811879" style="fill: #e6e6e6; stroke: #e6e6e6; stroke-width: 0.6"/>
      </g>
     </g>
    </g>
    <g id="ytick_9">
     <g id="line2d_48">
      <g>
       <use xlink:href="#m8eac54df8f" x="41.278365" y="481.734919" style="fill: #e6e6e6; stroke: #e6e6e6; stroke-width: 0.6"/>
      </g>
     </g>
    </g>
    <g id="ytick_10">
     <g id="line2d_49">
      <g>
       <use xlink:href="#m8eac54df8f" x="41.278365" y="474.610534" style="fill: #e6e6e6; stroke: #e6e6e6; stroke-width: 0.6"/>
      </g>
     </g>
    </g>
    <g id="ytick_11">
     <g id="line2d_50">
      <g>
       <use xlink:href="#m8eac54df8f" x="41.278365" y="426.310917" style="fill: #e6e6e6; stroke: #e6e6e6; stroke-width: 0.6"/>
      </g>
     </g>
    </g>
    <g id="ytick_12">
     <g id="line2d_51">
      <g>
       <use xlink:href="#m8eac54df8f" x="41.278365" y="401.785406" style="fill: #e6e6e6; stroke: #e6e6e6; stroke-width: 0.6"/>
      </g>
     </g>
    </g>
    <g id="ytick_13">
     <g id="line2d_52">
      <g>
       <use xlink:href="#m8eac54df8f" x="41.278365" y="384.384279" style="fill: #e6e6e6; stroke: #e6e6e6; stroke-width: 0.6"/>
      </g>
     </g>
    </g>
    <g id="ytick_14">
     <g id="line2d_53">
      <g>
       <use xlink:href="#m8eac54df8f" x="41.278365" y="370.886916" style="fill: #e6e6e6; stroke: #e6e6e6; stroke-width: 0.6"/>
      </g>
     </g>
    </g>
    <g id="ytick_15">
     <g id="line2d_54">
      <g>
       <use xlink:href="#m8eac54df8f" x="41.278365" y="359.858768" style="fill: #e6e6e6; stroke: #e6e6e6; stroke-width: 0.6"/>
      </g>
     </g>
    </g>
    <g id="ytick_16">
     <g id="line2d_55">
      <g>
       <use xlink:href="#m8eac54df8f" x="41.278365" y="350.534601" style="fill: #e6e6e6; stroke: #e6e6e6; stroke-width: 0.6"/>
      </g>
     </g>
    </g>
    <g id="ytick_17">
     <g id="line2d_56">
      <g>
       <use xlink:href="#m8eac54df8f" x="41.278365" y="342.45764" style="fill: #e6e6e6; stroke: #e6e6e6; stroke-width: 0.6"/>
      </g>
     </g>
    </g>
    <g id="ytick_18">
     <g id="line2d_57">
      <g>
       <use xlink:href="#m8eac54df8f" x="41.278365" y="335.333256" style="fill: #e6e6e6; stroke: #e6e6e6; stroke-width: 0.6"/>
      </g>
     </g>
    </g>
    <g id="ytick_19">
     <g id="line2d_58">
      <g>
       <use xlink:href="#m8eac54df8f" x="41.278365" y="287.033639" style="fill: #e6e6e6; stroke: #e6e6e6; stroke-width: 0.6"/>
      </g>
     </g>
    </g>
    <g id="ytick_20">
     <g id="line2d_59">
      <g>
       <use xlink:href="#m8eac54df8f" x="41.278365" y="262.508128" style="fill: #e6e6e6; stroke: #e6e6e6; stroke-width: 0.6"/>
      </g>
     </g>
    </g>
    <g id="ytick_21">
     <g id="line2d_60">
      <g>
       <use xlink:href="#m8eac54df8f" x="41.278365" y="245.107001" style="fill: #e6e6e6; stroke: #e6e6e6; stroke-width: 0.6"/>
      </g>
     </g>
    </g>
    <g id="ytick_22">
     <g id="line2d_61">
      <g>
       <use xlink:href="#m8eac54df8f" x="41.278365" y="231.609638" style="fill: #e6e6e6; stroke: #e6e6e6; stroke-width: 0.6"/>
      </g>
     </g>
    </g>
    <g id="ytick_23">
     <g id="line2d_62">
      <g>
       <use xlink:href="#m8eac54df8f" x="41.278365" y="220.58149" style="fill: #e6e6e6; stroke: #e6e6e6; stroke-width: 0.6"/>
      </g>
     </g>
    </g>
    <g id="ytick_24">
     <g id="line2d_63">
      <g>
       <use xlink:href="#m8eac54df8f" x="41.278365" y="211.257323" style="fill: #e6e6e6; stroke: #e6e6e6; stroke-width: 0.6"/>
      </g>
     </g>
    </g>
    <g id="ytick_25">
     <g id="line2d_64">
      <g>
       <use xlink:href="#m8eac54df8f" x="41.278365" y="203.180362" style="fill: #e6e6e6; stroke: #e6e6e6; stroke-width: 0.6"/>
      </g>
     </g>
    </g>
    <g id="ytick_26">
     <g id="line2d_65">
      <g>
       <use xlink:href="#m8eac54df8f" x="41.278365" y="196.055978" style="fill: #e6e6e6; stroke: #e6e6e6; stroke-width: 0.6"/>
      </g>
     </g>
    </g>
    <g id="ytick_27">
     <g id="line2d_66">
      <g>
       <use xlink:href="#m8eac54df8f" x="41.278365" y="147.756361" style="fill: #e6e6e6; stroke: #e6e6e6; stroke-width: 0.6"/>
      </g>
     </g>
    </g>
    <g id="ytick_28">
     <g id="line2d_67">
      <g>
       <use xlink:href="#m8eac54df8f" x="41.278365" y="123.23085" style="fill: #e6e6e6; stroke: #e6e6e6; stroke-width: 0.6"/>
      </g>
     </g>
    </g>
    <g id="ytick_29">
     <g id="line2d_68">
      <g>
       <use xlink:href="#m8eac54df8f" x="41.278365" y="105.829723" style="fill: #e6e6e6; stroke: #e6e6e6; stroke-width: 0.6"/>
      </g>
     </g>
    </g>
    <g id="ytick_30">
     <g id="line2d_69">
      <g>
       <use xlink:href="#m8eac54df8f" x="41.278365" y="92.33236" style="fill: #e6e6e6; stroke: #e6e6e6; stroke-width: 0.6"/>
      </g>
     </g>
    </g>
    <g id="ytick_31">
     <g id="line2d_70">
      <g>
       <use xlink:href="#m8eac54df8f" x="41.278365" y="81.304212" style="fill: #e6e6e6; stroke: #e6e6e6; stroke-width: 0.6"/>
      </g>
     </g>
    </g>
    <g id="ytick_32">
     <g id="line2d_71">
      <g>
       <use xlink:href="#m8eac54df8f" x="41.278365" y="71.980045" style="fill: #e6e6e6; stroke: #e6e6e6; stroke-width: 0.6"/>
      </g>
     </g>
    </g>
    <g id="text_23">
     <!-- avg latency -->
     <g style="fill: #e6e6e6" transform="translate(10.598677 331.885186) rotate(-90) scale(0.1 -0.1)">
      <defs>
       <path id="DejaVuSans-76" d="M 191 3500 
L 800 3500 
L 1894 563 
L 2988 3500 
L 3597 3500 
L 2284 0 
L 1503 0 
L 191 3500 
z
" transform="scale(0.015625)"/>
       <path id="DejaVuSans-67" d="M 2906 1791 
Q 2906 2416 2648 2759 
Q 2391 3103 1925 3103 
Q 1463 3103 1205 2759 
Q 947 2416 947 1791 
Q 947 1169 1205 825 
Q 1463 481 1925 481 
Q 2391 481 2648 825 
Q 2906 1169 2906 1791 
z
M 3481 434 
Q 3481 -459 3084 -895 
Q 2688 -1331 1869 -1331 
Q 1566 -1331 1297 -1286 
Q 1028 -1241 775 -1147 
L 775 -588 
Q 1028 -725 1275 -790 
Q 1522 -856 1778 -856 
Q 2344 -856 2625 -561 
Q 2906 -266 2906 331 
L 2906 616 
Q 2728 306 2450 153 
Q 2172 0 1784 0 
Q 1141 0 747 490 
Q 353 981 353 1791 
Q 353 2603 747 3093 
Q 1141 3584 1784 3584 
Q 2172 3584 2450 3431 
Q 2728 3278 2906 2969 
L 2906 3500 
L 3481 3500 
L 3481 434 
z
" transform="scale(0.015625)"/>
       <path id="DejaVuSans-74" d="M 1172 4494 
L 1172 3500 
L 2356 3500 
L 2356 3053 
L 1172 3053 
L 1172 1153 
Q 1172 725 1289 603 
Q 1406 481 1766 481 
L 2356 481 
L 2356 0 
L 1766 0 
Q 1100 0 847 248 
Q 594 497 594 1153 
L 594 3053 
L 172 3053 
L 172 3500 
L 594 3500 
L 594 4494 
L 1172 4494 
z
" transform="scale(0.015625)"/>
       <path id="DejaVuSans-6e" d="M 3513 2113 
L 3513 0 
L 2938 0 
L 2938 2094 
Q 2938 2591 2744 2837 
Q 2550 3084 2163 3084 
Q 1697 3084 1428 2787 
Q 1159 2491 1159 1978 
L 1159 0 
L 581 0 
L 581 3500 
L 1159 3500 
L 1159 2956 
Q 1366 3272 1645 3428 
Q 1925 3584 2291 3584 
Q 2894 3584 3203 3211 
Q 3513 2838 3513 2113 
z
" transform="scale(0.015625)"/>
       <path id="DejaVuSans-63" d="M 3122 3366 
L 3122 2828 
Q 2878 2963 2633 3030 
Q 2388 3097 2138 3097 
Q 1578 3097 1268 2742 
Q 959 2388 959 1747 
Q 959 1106 1268 751 
Q 1578 397 2138 397 
Q 2388 397 2633 464 
Q 2878 531 3122 666 
L 3122 134 
Q 2881 22 2623 -34 
Q 2366 -91 2075 -91 
Q 1284 -91 818 406 
Q 353 903 353 1747 
Q 353 2603 823 3093 
Q 1294 3584 2113 3584 
Q 2378 3584 2631 3529 
Q 2884 3475 3122 3366 
z
" transform="scale(0.015625)"/>
      </defs>
      <use xlink:href="#DejaVuSans-61"/>
      <use xlink:href="#DejaVuSans-76" transform="translate(61.279297 0)"/>
      <use xlink:href="#DejaVuSans-67" transform="translate(120.458984 0)"/>
      <use xlink:href="#DejaVuSans-20" transform="translate(183.935547 0)"/>
      <use xlink:href="#DejaVuSans-6c" transform="translate(215.722656 0)"/>
      <use xlink:href="#DejaVuSans-61" transform="translate(243.505859 0)"/>
      <use xlink:href="#DejaVuSans-74" transform="translate(304.785156 0)"/>
      <use xlink:href="#DejaVuSans-65" transform="translate(343.994141 0)"/>
      <use xlink:href="#DejaVuSans-6e" transform="translate(405.517578 0)"/>
      <use xlink:href="#DejaVuSans-63" transform="translate(468.896484 0)"/>
      <use xlink:href="#DejaVuSans-79" transform="translate(523.876953 0)"/>
     </g>
    </g>
   </g>
   <g id="line2d_72">
    <path d="M 89.992974 479.516156 
L 147.304278 480.307753 
L 204.615583 477.573922 
L 261.926888 484.059389 
L 319.238192 472.93559 
L 376.549497 468.420504 
L 433.860801 476.887531 
L 491.172106 467.383484 
L 548.48341 429.017189 
L 605.794715 427.66732 
L 663.106019 423.695645 
L 720.417324 406.121922 
L 777.728628 305.407644 
L 835.039933 268.654413 
L 892.351237 224.13604 
L 949.662542 179.058141 
L 1006.973847 139.155261 
L 1064.285151 124.288404 
" clip-path="url(#pa898f46773)" style="fill: none; stroke: #7dd3fc; stroke-width: 2.3; stroke-linecap: square"/>
    <defs>
     <path id="m13afc8f417" d="M 0 2.4 
C 0.636487 2.4 1.246992 2.147121 1.697056 1.697056 
C 2.147121 1.246992 2.4 0.636487 2.4 0 
C 2.4 -0.636487 2.147121 -1.246992 1.697056 -1.697056 
C 1.246992 -2.147121 0.636487 -2.4 0 -2.4 
C -0.636487 -2.4 -1.246992 -2.147121 -1.697056 -1.697056 
C -2.147121 -1.246992 -2.4 -0.636487 -2.4 0 
C -2.4 0.636487 -2.147121 1.246992 -1.697056 1.697056 
C -1.246992 2.147121 -0.636487 2.4 0 2.4 
z
" style="stroke: #7dd3fc"/>
    </defs>
    <g clip-path="url(#pa898f46773)">
     <use xlink:href="#m13afc8f417" x="89.992974" y="479.516156" style="fill: #7dd3fc; stroke: #7dd3fc"/>
     <use xlink:href="#m13afc8f417" x="147.304278" y="480.307753" style="fill: #7dd3fc; stroke: #7dd3fc"/>
     <use xlink:href="#m13afc8f417" x="204.615583" y="477.573922" style="fill: #7dd3fc; stroke: #7dd3fc"/>
     <use xlink:href="#m13afc8f417" x="261.926888" y="484.059389" style="fill: #7dd3fc; stroke: #7dd3fc"/>
     <use xlink:href="#m13afc8f417" x="319.238192" y="472.93559" style="fill: #7dd3fc; stroke: #7dd3fc"/>
     <use xlink:href="#m13afc8f417" x="376.549497" y="468.420504" style="fill: #7dd3fc; stroke: #7dd3fc"/>
     <use xlink:href="#m13afc8f417" x="433.860801" y="476.887531" style="fill: #7dd3fc; stroke: #7dd3fc"/>
     <use xlink:href="#m13afc8f417" x="491.172106" y="467.383484" style="fill: #7dd3fc; stroke: #7dd3fc"/>
     <use xlink:href="#m13afc8f417" x="548.48341" y="429.017189" style="fill: #7dd3fc; stroke: #7dd3fc"/>
     <use xlink:href="#m13afc8f417" x="605.794715" y="427.66732" style="fill: #7dd3fc; stroke: #7dd3fc"/>
     <use xlink:href="#m13afc8f417" x="663.106019" y="423.695645" style="fill: #7dd3fc; stroke: #7dd3fc"/>
     <use xlink:href="#m13afc8f417" x="720.417324" y="406.121922" style="fill: #7dd3fc; stroke: #7dd3fc"/>
     <use xlink:href="#m13afc8f417" x="777.728628" y="305.407644" style="fill: #7dd3fc; stroke: #7dd3fc"/>
     <use xlink:href="#m13afc8f417" x="835.039933" y="268.654413" style="fill: #7dd3fc; stroke: #7dd3fc"/>
     <use xlink:href="#m13afc8f417" x="892.351237" y="224.13604" style="fill: #7dd3fc; stroke: #7dd3fc"/>
     <use xlink:href="#m13afc8f417" x="949.662542" y="179.058141" style="fill: #7dd3fc; stroke: #7dd3fc"/>
     <use xlink:href="#m13afc8f417" x="1006.973847" y="139.155261" style="fill: #7dd3fc; stroke: #7dd3fc"/>
     <use xlink:href="#m13afc8f417" x="1064.285151" y="124.288404" style="fill: #7dd3fc; stroke: #7dd3fc"/>
    </g>
   </g>
   <g id="line2d_73">
    <path d="M 89.992974 496.375316 
L 147.304278 503.049284 
L 204.615583 510.7993 
L 261.926888 519.733108 
L 319.238192 506.033169 
L 376.549497 495.787123 
L 433.860801 491.078633 
L 491.172106 435.754367 
L 548.48341 427.958761 
L 605.794715 410.403413 
L 663.106019 384.831501 
L 720.417324 355.093275 
L 777.728628 321.262062 
L 835.039933 276.459923 
L 892.351237 231.381273 
L 949.662542 186.359321 
L 1006.973847 141.07825 
L 1064.285151 96.112406 
" clip-path="url(#pa898f46773)" style="fill: none; stroke: #f59e0b; stroke-width: 2.3; stroke-linecap: square"/>
    <defs>
     <path id="m9f087e053b" d="M 0 2.4 
C 0.636487 2.4 1.246992 2.147121 1.697056 1.697056 
C 2.147121 1.246992 2.4 0.636487 2.4 0 
C 2.4 -0.636487 2.147121 -1.246992 1.697056 -1.697056 
C 1.246992 -2.147121 0.636487 -2.4 0 -2.4 
C -0.636487 -2.4 -1.246992 -2.147121 -1.697056 -1.697056 
C -2.147121 -1.246992 -2.4 -0.636487 -2.4 0 
C -2.4 0.636487 -2.147121 1.246992 -1.697056 1.697056 
C -1.246992 2.147121 -0.636487 2.4 0 2.4 
z
" style="stroke: #f59e0b"/>
    </defs>
    <g clip-path="url(#pa898f46773)">
     <use xlink:href="#m9f087e053b" x="89.992974" y="496.375316" style="fill: #f59e0b; stroke: #f59e0b"/>
     <use xlink:href="#m9f087e053b" x="147.304278" y="503.049284" style="fill: #f59e0b; stroke: #f59e0b"/>
     <use xlink:href="#m9f087e053b" x="204.615583" y="510.7993" style="fill: #f59e0b; stroke: #f59e0b"/>
     <use xlink:href="#m9f087e053b" x="261.926888" y="519.733108" style="fill: #f59e0b; stroke: #f59e0b"/>
     <use xlink:href="#m9f087e053b" x="319.238192" y="506.033169" style="fill: #f59e0b; stroke: #f59e0b"/>
     <use xlink:href="#m9f087e053b" x="376.549497" y="495.787123" style="fill: #f59e0b; stroke: #f59e0b"/>
     <use xlink:href="#m9f087e053b" x="433.860801" y="491.078633" style="fill: #f59e0b; stroke: #f59e0b"/>
     <use xlink:href="#m9f087e053b" x="491.172106" y="435.754367" style="fill: #f59e0b; stroke: #f59e0b"/>
     <use xlink:href="#m9f087e053b" x="548.48341" y="427.958761" style="fill: #f59e0b; stroke: #f59e0b"/>
     <use xlink:href="#m9f087e053b" x="605.794715" y="410.403413" style="fill: #f59e0b; stroke: #f59e0b"/>
     <use xlink:href="#m9f087e053b" x="663.106019" y="384.831501" style="fill: #f59e0b; stroke: #f59e0b"/>
     <use xlink:href="#m9f087e053b" x="720.417324" y="355.093275" style="fill: #f59e0b; stroke: #f59e0b"/>
     <use xlink:href="#m9f087e053b" x="777.728628" y="321.262062" style="fill: #f59e0b; stroke: #f59e0b"/>
     <use xlink:href="#m9f087e053b" x="835.039933" y="276.459923" style="fill: #f59e0b; stroke: #f59e0b"/>
     <use xlink:href="#m9f087e053b" x="892.351237" y="231.381273" style="fill: #f59e0b; stroke: #f59e0b"/>
     <use xlink:href="#m9f087e053b" x="949.662542" y="186.359321" style="fill: #f59e0b; stroke: #f59e0b"/>
     <use xlink:href="#m9f087e053b" x="1006.973847" y="141.07825" style="fill: #f59e0b; stroke: #f59e0b"/>
     <use xlink:href="#m9f087e053b" x="1064.285151" y="96.112406" style="fill: #f59e0b; stroke: #f59e0b"/>
    </g>
   </g>
   <g id="line2d_74">
    <path d="M 89.992974 475.83153 
L 147.304278 493.949252 
L 204.615583 493.590908 
L 261.926888 492.568387 
L 319.238192 482.279342 
L 376.549497 478.86563 
L 433.860801 470.037801 
L 491.172106 440.71989 
L 548.48341 420.359181 
L 605.794715 397.056826 
L 663.106019 375.160951 
L 720.417324 347.052986 
L 777.728628 314.408408 
L 835.039933 273.730595 
L 892.351237 230.315495 
L 949.662542 189.012743 
L 1006.973847 140.210155 
L 1064.285151 89.34843 
" clip-path="url(#pa898f46773)" style="fill: none; stroke: #a3e635; stroke-width: 2.3; stroke-linecap: square"/>
    <defs>
     <path id="m70c9d1eac0" d="M 0 2.4 
C 0.636487 2.4 1.246992 2.147121 1.697056 1.697056 
C 2.147121 1.246992 2.4 0.636487 2.4 0 
C 2.4 -0.636487 2.147121 -1.246992 1.697056 -1.697056 
C 1.246992 -2.147121 0.636487 -2.4 0 -2.4 
C -0.636487 -2.4 -1.246992 -2.147121 -1.697056 -1.697056 
C -2.147121 -1.246992 -2.4 -0.636487 -2.4 0 
C -2.4 0.636487 -2.147121 1.246992 -1.697056 1.697056 
C -1.246992 2.147121 -0.636487 2.4 0 2.4 
z
" style="stroke: #a3e635"/>
    </defs>
    <g clip-path="url(#pa898f46773)">
     <use xlink:href="#m70c9d1eac0" x="89.992974" y="475.83153" style="fill: #a3e635; stroke: #a3e635"/>
     <use xlink:href="#m70c9d1eac0" x="147.304278" y="493.949252" style="fill: #a3e635; stroke: #a3e635"/>
     <use xlink:href="#m70c9d1eac0" x="204.615583" y="493.590908" style="fill: #a3e635; stroke: #a3e635"/>
     <use xlink:href="#m70c9d1eac0" x="261.926888" y="492.568387" style="fill: #a3e635; stroke: #a3e635"/>
     <use xlink:href="#m70c9d1eac0" x="319.238192" y="482.279342" style="fill: #a3e635; stroke: #a3e635"/>
     <use xlink:href="#m70c9d1eac0" x="376.549497" y="478.86563" style="fill: #a3e635; stroke: #a3e635"/>
     <use xlink:href="#m70c9d1eac0" x="433.860801" y="470.037801" style="fill: #a3e635; stroke: #a3e635"/>
     <use xlink:href="#m70c9d1eac0" x="491.172106" y="440.71989" style="fill: #a3e635; stroke: #a3e635"/>
     <use xlink:href="#m70c9d1eac0" x="548.48341" y="420.359181" style="fill: #a3e635; stroke: #a3e635"/>
     <use xlink:href="#m70c9d1eac0" x="605.794715" y="397.056826" style="fill: #a3e635; stroke: #a3e635"/>
     <use xlink:href="#m70c9d1eac0" x="663.106019" y="375.160951" style="fill: #a3e635; stroke: #a3e635"/>
     <use xlink:href="#m70c9d1eac0" x="720.417324" y="347.052986" style="fill: #a3e635; stroke: #a3e635"/>
     <use xlink:href="#m70c9d1eac0" x="777.728628" y="314.408408" style="fill: #a3e635; stroke: #a3e635"/>
     <use xlink:href="#m70c9d1eac0" x="835.039933" y="273.730595" style="fill: #a3e635; stroke: #a3e635"/>
     <use xlink:href="#m70c9d1eac0" x="892.351237" y="230.315495" style="fill: #a3e635; stroke: #a3e635"/>
     <use xlink:href="#m70c9d1eac0" x="949.662542" y="189.012743" style="fill: #a3e635; stroke: #a3e635"/>
     <use xlink:href="#m70c9d1eac0" x="1006.973847" y="140.210155" style="fill: #a3e635; stroke: #a3e635"/>
     <use xlink:href="#m70c9d1eac0" x="1064.285151" y="89.34843" style="fill: #a3e635; stroke: #a3e635"/>
    </g>
   </g>
   <g id="line2d_75">
    <path d="M 89.992974 464.138555 
L 147.304278 470.843721 
L 204.615583 478.03315 
L 261.926888 483.058368 
L 319.238192 478.505519 
L 376.549497 467.974068 
L 433.860801 458.209238 
L 491.172106 436.319626 
L 548.48341 416.971184 
L 605.794715 385.694572 
L 663.106019 366.234042 
L 720.417324 335.34622 
L 777.728628 308.191977 
L 835.039933 264.707584 
L 892.351237 219.742483 
L 949.662542 178.866835 
L 1006.973847 133.640038 
L 1064.285151 85.729451 
" clip-path="url(#pa898f46773)" style="fill: none; stroke: #60a5fa; stroke-width: 2.3; stroke-linecap: square"/>
    <defs>
     <path id="m741c43f7ff" d="M 0 2.4 
C 0.636487 2.4 1.246992 2.147121 1.697056 1.697056 
C 2.147121 1.246992 2.4 0.636487 2.4 0 
C 2.4 -0.636487 2.147121 -1.246992 1.697056 -1.697056 
C 1.246992 -2.147121 0.636487 -2.4 0 -2.4 
C -0.636487 -2.4 -1.246992 -2.147121 -1.697056 -1.697056 
C -2.147121 -1.246992 -2.4 -0.636487 -2.4 0 
C -2.4 0.636487 -2.147121 1.246992 -1.697056 1.697056 
C -1.246992 2.147121 -0.636487 2.4 0 2.4 
z
" style="stroke: #60a5fa"/>
    </defs>
    <g clip-path="url(#pa898f46773)">
     <use xlink:href="#m741c43f7ff" x="89.992974" y="464.138555" style="fill: #60a5fa; stroke: #60a5fa"/>
     <use xlink:href="#m741c43f7ff" x="147.304278" y="470.843721" style="fill: #60a5fa; stroke: #60a5fa"/>
     <use xlink:href="#m741c43f7ff" x="204.615583" y="478.03315" style="fill: #60a5fa; stroke: #60a5fa"/>
     <use xlink:href="#m741c43f7ff" x="261.926888" y="483.058368" style="fill: #60a5fa; stroke: #60a5fa"/>
     <use xlink:href="#m741c43f7ff" x="319.238192" y="478.505519" style="fill: #60a5fa; stroke: #60a5fa"/>
     <use xlink:href="#m741c43f7ff" x="376.549497" y="467.974068" style="fill: #60a5fa; stroke: #60a5fa"/>
     <use xlink:href="#m741c43f7ff" x="433.860801" y="458.209238" style="fill: #60a5fa; stroke: #60a5fa"/>
     <use xlink:href="#m741c43f7ff" x="491.172106" y="436.319626" style="fill: #60a5fa; stroke: #60a5fa"/>
     <use xlink:href="#m741c43f7ff" x="548.48341" y="416.971184" style="fill: #60a5fa; stroke: #60a5fa"/>
     <use xlink:href="#m741c43f7ff" x="605.794715" y="385.694572" style="fill: #60a5fa; stroke: #60a5fa"/>
     <use xlink:href="#m741c43f7ff" x="663.106019" y="366.234042" style="fill: #60a5fa; stroke: #60a5fa"/>
     <use xlink:href="#m741c43f7ff" x="720.417324" y="335.34622" style="fill: #60a5fa; stroke: #60a5fa"/>
     <use xlink:href="#m741c43f7ff" x="777.728628" y="308.191977" style="fill: #60a5fa; stroke: #60a5fa"/>
     <use xlink:href="#m741c43f7ff" x="835.039933" y="264.707584" style="fill: #60a5fa; stroke: #60a5fa"/>
     <use xlink:href="#m741c43f7ff" x="892.351237" y="219.742483" style="fill: #60a5fa; stroke: #60a5fa"/>
     <use xlink:href="#m741c43f7ff" x="949.662542" y="178.866835" style="fill: #60a5fa; stroke: #60a5fa"/>
     <use xlink:href="#m741c43f7ff" x="1006.973847" y="133.640038" style="fill: #60a5fa; stroke: #60a5fa"/>
     <use xlink:href="#m741c43f7ff" x="1064.285151" y="85.729451" style="fill: #60a5fa; stroke: #60a5fa"/>
    </g>
   </g>
   <g id="patch_3">
    <path d="M 41.278365 541.433291 
L 41.278365 64.029268 
" style="fill: none; stroke: #c7c7c7; stroke-width: 0.8; stroke-linejoin: miter; stroke-linecap: square"/>
   </g>
   <g id="patch_4">
    <path d="M 1112.99976 541.433291 
L 1112.99976 64.029268 
" style="fill: none; stroke: #c7c7c7; stroke-width: 0.8; stroke-linejoin: miter; stroke-linecap: square"/>
   </g>
   <g id="patch_5">
    <path d="M 41.278365 541.433291 
L 1112.99976 541.433291 
" style="fill: none; stroke: #c7c7c7; stroke-width: 0.8; stroke-linejoin: miter; stroke-linecap: square"/>
   </g>
   <g id="patch_6">
    <path d="M 41.278365 64.029268 
L 1112.99976 64.029268 
" style="fill: none; stroke: #c7c7c7; stroke-width: 0.8; stroke-linejoin: miter; stroke-linecap: square"/>
   </g>
   <g id="text_24">
    <!-- batch=100, log-scale x and y axes -->
    <g style="fill: #e6e6e6" transform="translate(41.278365 49.707147) scale(0.11 -0.11)">
     <defs>
      <path id="DejaVuSans-62" d="M 3116 1747 
Q 3116 2381 2855 2742 
Q 2594 3103 2138 3103 
Q 1681 3103 1420 2742 
Q 1159 2381 1159 1747 
Q 1159 1113 1420 752 
Q 1681 391 2138 391 
Q 2594 391 2855 752 
Q 3116 1113 3116 1747 
z
M 1159 2969 
Q 1341 3281 1617 3432 
Q 1894 3584 2278 3584 
Q 2916 3584 3314 3078 
Q 3713 2572 3713 1747 
Q 3713 922 3314 415 
Q 2916 -91 2278 -91 
Q 1894 -91 1617 61 
Q 1341 213 1159 525 
L 1159 0 
L 581 0 
L 581 4863 
L 1159 4863 
L 1159 2969 
z
" transform="scale(0.015625)"/>
      <path id="DejaVuSans-68" d="M 3513 2113 
L 3513 0 
L 2938 0 
L 2938 2094 
Q 2938 2591 2744 2837 
Q 2550 3084 2163 3084 
Q 1697 3084 1428 2787 
Q 1159 2491 1159 1978 
L 1159 0 
L 581 0 
L 581 4863 
L 1159 4863 
L 1159 2956 
Q 1366 3272 1645 3428 
Q 1925 3584 2291 3584 
Q 2894 3584 3203 3211 
Q 3513 2838 3513 2113 
z
" transform="scale(0.015625)"/>
      <path id="DejaVuSans-3d" d="M 678 2906 
L 4684 2906 
L 4684 2381 
L 678 2381 
L 678 2906 
z
M 678 1631 
L 4684 1631 
L 4684 1100 
L 678 1100 
L 678 1631 
z
" transform="scale(0.015625)"/>
      <path id="DejaVuSans-2c" d="M 750 794 
L 1409 794 
L 1409 256 
L 897 -744 
L 494 -744 
L 750 256 
L 750 794 
z
" transform="scale(0.015625)"/>
      <path id="DejaVuSans-2d" d="M 313 2009 
L 1997 2009 
L 1997 1497 
L 313 1497 
L 313 2009 
z
" transform="scale(0.015625)"/>
      <path id="DejaVuSans-78" d="M 3513 3500 
L 2247 1797 
L 3578 0 
L 2900 0 
L 1881 1375 
L 863 0 
L 184 0 
L 1544 1831 
L 300 3500 
L 978 3500 
L 1906 2253 
L 2834 3500 
L 3513 3500 
z
" transform="scale(0.015625)"/>
     </defs>
     <use xlink:href="#DejaVuSans-62"/>
     <use xlink:href="#DejaVuSans-61" transform="translate(63.476562 0)"/>
     <use xlink:href="#DejaVuSans-74" transform="translate(124.755859 0)"/>
     <use xlink:href="#DejaVuSans-63" transform="translate(163.964844 0)"/>
     <use xlink:href="#DejaVuSans-68" transform="translate(218.945312 0)"/>
     <use xlink:href="#DejaVuSans-3d" transform="translate(282.324219 0)"/>
     <use xlink:href="#DejaVuSans-31" transform="translate(366.113281 0)"/>
     <use xlink:href="#DejaVuSans-30" transform="translate(429.736328 0)"/>
     <use xlink:href="#DejaVuSans-30" transform="translate(493.359375 0)"/>
     <use xlink:href="#DejaVuSans-2c" transform="translate(556.982422 0)"/>
     <use xlink:href="#DejaVuSans-20" transform="translate(588.769531 0)"/>
     <use xlink:href="#DejaVuSans-6c" transform="translate(620.556641 0)"/>
     <use xlink:href="#DejaVuSans-6f" transform="translate(648.339844 0)"/>
     <use xlink:href="#DejaVuSans-67" transform="translate(709.521484 0)"/>
     <use xlink:href="#DejaVuSans-2d" transform="translate(772.998047 0)"/>
     <use xlink:href="#DejaVuSans-73" transform="translate(809.082031 0)"/>
     <use xlink:href="#DejaVuSans-63" transform="translate(861.181641 0)"/>
     <use xlink:href="#DejaVuSans-61" transform="translate(916.162109 0)"/>
     <use xlink:href="#DejaVuSans-6c" transform="translate(977.441406 0)"/>
     <use xlink:href="#DejaVuSans-65" transform="translate(1005.224609 0)"/>
     <use xlink:href="#DejaVuSans-20" transform="translate(1066.748047 0)"/>
     <use xlink:href="#DejaVuSans-78" transform="translate(1098.535156 0)"/>
     <use xlink:href="#DejaVuSans-20" transform="translate(1157.714844 0)"/>
     <use xlink:href="#DejaVuSans-61" transform="translate(1189.501953 0)"/>
     <use xlink:href="#DejaVuSans-6e" transform="translate(1250.78125 0)"/>
     <use xlink:href="#DejaVuSans-64" transform="translate(1314.160156 0)"/>
     <use xlink:href="#DejaVuSans-20" transform="translate(1377.636719 0)"/>
     <use xlink:href="#DejaVuSans-79" transform="translate(1409.423828 0)"/>
     <use xlink:href="#DejaVuSans-20" transform="translate(1468.603516 0)"/>
     <use xlink:href="#DejaVuSans-61" transform="translate(1500.390625 0)"/>
     <use xlink:href="#DejaVuSans-78" transform="translate(1561.669922 0)"/>
     <use xlink:href="#DejaVuSans-65" transform="translate(1617.724609 0)"/>
     <use xlink:href="#DejaVuSans-73" transform="translate(1679.248047 0)"/>
    </g>
   </g>
   <g id="text_25">
    <!-- Uint8Array Size Sweep (less is better) -->
    <g style="fill: #f0f0f0" transform="translate(41.278365 42.029268) scale(0.17 -0.17)">
     <defs>
      <path id="DejaVuSans-55" d="M 556 4666 
L 1191 4666 
L 1191 1831 
Q 1191 1081 1462 751 
Q 1734 422 2344 422 
Q 2950 422 3222 751 
Q 3494 1081 3494 1831 
L 3494 4666 
L 4128 4666 
L 4128 1753 
Q 4128 841 3676 375 
Q 3225 -91 2344 -91 
Q 1459 -91 1007 375 
Q 556 841 556 1753 
L 556 4666 
z
" transform="scale(0.015625)"/>
      <path id="DejaVuSans-41" d="M 2188 4044 
L 1331 1722 
L 3047 1722 
L 2188 4044 
z
M 1831 4666 
L 2547 4666 
L 4325 0 
L 3669 0 
L 3244 1197 
L 1141 1197 
L 716 0 
L 50 0 
L 1831 4666 
z
" transform="scale(0.015625)"/>
      <path id="DejaVuSans-72" d="M 2631 2963 
Q 2534 3019 2420 3045 
Q 2306 3072 2169 3072 
Q 1681 3072 1420 2755 
Q 1159 2438 1159 1844 
L 1159 0 
L 581 0 
L 581 3500 
L 1159 3500 
L 1159 2956 
Q 1341 3275 1631 3429 
Q 1922 3584 2338 3584 
Q 2397 3584 2469 3576 
Q 2541 3569 2628 3553 
L 2631 2963 
z
" transform="scale(0.015625)"/>
      <path id="DejaVuSans-53" d="M 3425 4513 
L 3425 3897 
Q 3066 4069 2747 4153 
Q 2428 4238 2131 4238 
Q 1616 4238 1336 4038 
Q 1056 3838 1056 3469 
Q 1056 3159 1242 3001 
Q 1428 2844 1947 2747 
L 2328 2669 
Q 3034 2534 3370 2195 
Q 3706 1856 3706 1288 
Q 3706 609 3251 259 
Q 2797 -91 1919 -91 
Q 1588 -91 1214 -16 
Q 841 59 441 206 
L 441 856 
Q 825 641 1194 531 
Q 1563 422 1919 422 
Q 2459 422 2753 634 
Q 3047 847 3047 1241 
Q 3047 1584 2836 1778 
Q 2625 1972 2144 2069 
L 1759 2144 
Q 1053 2284 737 2584 
Q 422 2884 422 3419 
Q 422 4038 858 4394 
Q 1294 4750 2059 4750 
Q 2388 4750 2728 4690 
Q 3069 4631 3425 4513 
z
" transform="scale(0.015625)"/>
      <path id="DejaVuSans-77" d="M 269 3500 
L 844 3500 
L 1563 769 
L 2278 3500 
L 2956 3500 
L 3675 769 
L 4391 3500 
L 4966 3500 
L 4050 0 
L 3372 0 
L 2619 2869 
L 1863 0 
L 1184 0 
L 269 3500 
z
" transform="scale(0.015625)"/>
      <path id="DejaVuSans-28" d="M 1984 4856 
Q 1566 4138 1362 3434 
Q 1159 2731 1159 2009 
Q 1159 1288 1364 580 
Q 1569 -128 1984 -844 
L 1484 -844 
Q 1016 -109 783 600 
Q 550 1309 550 2009 
Q 550 2706 781 3412 
Q 1013 4119 1484 4856 
L 1984 4856 
z
" transform="scale(0.015625)"/>
      <path id="DejaVuSans-29" d="M 513 4856 
L 1013 4856 
Q 1481 4119 1714 3412 
Q 1947 2706 1947 2009 
Q 1947 1309 1714 600 
Q 1481 -109 1013 -844 
L 513 -844 
Q 928 -128 1133 580 
Q 1338 1288 1338 2009 
Q 1338 2731 1133 3434 
Q 928 4138 513 4856 
z
" transform="scale(0.015625)"/>
     </defs>
     <use xlink:href="#DejaVuSans-55"/>
     <use xlink:href="#DejaVuSans-69" transform="translate(73.193359 0)"/>
     <use xlink:href="#DejaVuSans-6e" transform="translate(100.976562 0)"/>
     <use xlink:href="#DejaVuSans-74" transform="translate(164.355469 0)"/>
     <use xlink:href="#DejaVuSans-38" transform="translate(203.564453 0)"/>
     <use xlink:href="#DejaVuSans-41" transform="translate(267.1875 0)"/>
     <use xlink:href="#DejaVuSans-72" transform="translate(335.595703 0)"/>
     <use xlink:href="#DejaVuSans-72" transform="translate(374.958984 0)"/>
     <use xlink:href="#DejaVuSans-61" transform="translate(416.072266 0)"/>
     <use xlink:href="#DejaVuSans-79" transform="translate(477.351562 0)"/>
     <use xlink:href="#DejaVuSans-20" transform="translate(536.53125 0)"/>
     <use xlink:href="#DejaVuSans-53" transform="translate(568.318359 0)"/>
     <use xlink:href="#DejaVuSans-69" transform="translate(631.794922 0)"/>
     <use xlink:href="#DejaVuSans-7a" transform="translate(659.578125 0)"/>
     <use xlink:href="#DejaVuSans-65" transform="translate(712.068359 0)"/>
     <use xlink:href="#DejaVuSans-20" transform="translate(773.591797 0)"/>
     <use xlink:href="#DejaVuSans-53" transform="translate(805.378906 0)"/>
     <use xlink:href="#DejaVuSans-77" transform="translate(868.855469 0)"/>
     <use xlink:href="#DejaVuSans-65" transform="translate(950.642578 0)"/>
     <use xlink:href="#DejaVuSans-65" transform="translate(1012.166016 0)"/>
     <use xlink:href="#DejaVuSans-70" transform="translate(1073.689453 0)"/>
     <use xlink:href="#DejaVuSans-20" transform="translate(1137.166016 0)"/>
     <use xlink:href="#DejaVuSans-28" transform="translate(1168.953125 0)"/>
     <use xlink:href="#DejaVuSans-6c" transform="translate(1207.966797 0)"/>
     <use xlink:href="#DejaVuSans-65" transform="translate(1235.75 0)"/>
     <use xlink:href="#DejaVuSans-73" transform="translate(1297.273438 0)"/>
     <use xlink:href="#DejaVuSans-73" transform="translate(1349.373047 0)"/>
     <use xlink:href="#DejaVuSans-20" transform="translate(1401.472656 0)"/>
     <use xlink:href="#DejaVuSans-69" transform="translate(1433.259766 0)"/>
     <use xlink:href="#DejaVuSans-73" transform="translate(1461.042969 0)"/>
     <use xlink:href="#DejaVuSans-20" transform="translate(1513.142578 0)"/>
     <use xlink:href="#DejaVuSans-62" transform="translate(1544.929688 0)"/>
     <use xlink:href="#DejaVuSans-65" transform="translate(1608.40625 0)"/>
     <use xlink:href="#DejaVuSans-74" transform="translate(1669.929688 0)"/>
     <use xlink:href="#DejaVuSans-74" transform="translate(1709.138672 0)"/>
     <use xlink:href="#DejaVuSans-65" transform="translate(1748.347656 0)"/>
     <use xlink:href="#DejaVuSans-72" transform="translate(1809.871094 0)"/>
     <use xlink:href="#DejaVuSans-29" transform="translate(1850.984375 0)"/>
    </g>
   </g>
   <g id="legend_1">
    <g id="patch_7">
     <path d="M 48.278365 20.836946 
L 317.94399 20.836946 
Q 319.94399 20.836946 319.94399 18.836946 
L 319.94399 5.158821 
Q 319.94399 3.158821 317.94399 3.158821 
L 48.278365 3.158821 
Q 46.278365 3.158821 46.278365 5.158821 
L 46.278365 18.836946 
Q 46.278365 20.836946 48.278365 20.836946 
z
" style="fill: #111318; opacity: 0.8; stroke: #2a2f3a; stroke-linejoin: miter"/>
    </g>
    <g id="line2d_76">
     <path d="M 50.278365 11.257259 
L 60.278365 11.257259 
L 70.278365 11.257259 
" style="fill: none; stroke: #7dd3fc; stroke-width: 2.3; stroke-linecap: square"/>
     <g>
      <use xlink:href="#m13afc8f417" x="60.278365" y="11.257259" style="fill: #7dd3fc; stroke: #7dd3fc"/>
     </g>
    </g>
    <g id="text_26">
     <!-- tokio -->
     <g style="fill: #e6e6e6" transform="translate(78.278365 14.757259) scale(0.1 -0.1)">
      <defs>
       <path id="DejaVuSans-6b" d="M 581 4863 
L 1159 4863 
L 1159 1991 
L 2875 3500 
L 3609 3500 
L 1753 1863 
L 3688 0 
L 2938 0 
L 1159 1709 
L 1159 0 
L 581 0 
L 581 4863 
z
" transform="scale(0.015625)"/>
      </defs>
      <use xlink:href="#DejaVuSans-74"/>
      <use xlink:href="#DejaVuSans-6f" transform="translate(39.208984 0)"/>
      <use xlink:href="#DejaVuSans-6b" transform="translate(100.390625 0)"/>
      <use xlink:href="#DejaVuSans-69" transform="translate(158.300781 0)"/>
      <use xlink:href="#DejaVuSans-6f" transform="translate(186.083984 0)"/>
     </g>
    </g>
    <g id="line2d_77">
     <path d="M 123.004928 11.257259 
L 133.004928 11.257259 
L 143.004928 11.257259 
" style="fill: none; stroke: #f59e0b; stroke-width: 2.3; stroke-linecap: square"/>
     <g>
      <use xlink:href="#m9f087e053b" x="133.004928" y="11.257259" style="fill: #f59e0b; stroke: #f59e0b"/>
     </g>
    </g>
    <g id="text_27">
     <!-- bun -->
     <g style="fill: #e6e6e6" transform="translate(151.004928 14.757259) scale(0.1 -0.1)">
      <defs>
       <path id="DejaVuSans-75" d="M 544 1381 
L 544 3500 
L 1119 3500 
L 1119 1403 
Q 1119 906 1312 657 
Q 1506 409 1894 409 
Q 2359 409 2629 706 
Q 2900 1003 2900 1516 
L 2900 3500 
L 3475 3500 
L 3475 0 
L 2900 0 
L 2900 538 
Q 2691 219 2414 64 
Q 2138 -91 1772 -91 
Q 1169 -91 856 284 
Q 544 659 544 1381 
z
M 1991 3584 
L 1991 3584 
z
" transform="scale(0.015625)"/>
      </defs>
      <use xlink:href="#DejaVuSans-62"/>
      <use xlink:href="#DejaVuSans-75" transform="translate(63.476562 0)"/>
      <use xlink:href="#DejaVuSans-6e" transform="translate(126.855469 0)"/>
     </g>
    </g>
    <g id="line2d_78">
     <path d="M 190.028365 11.257259 
L 200.028365 11.257259 
L 210.028365 11.257259 
" style="fill: none; stroke: #a3e635; stroke-width: 2.3; stroke-linecap: square"/>
     <g>
      <use xlink:href="#m70c9d1eac0" x="200.028365" y="11.257259" style="fill: #a3e635; stroke: #a3e635"/>
     </g>
    </g>
    <g id="text_28">
     <!-- node -->
     <g style="fill: #e6e6e6" transform="translate(218.028365 14.757259) scale(0.1 -0.1)">
      <use xlink:href="#DejaVuSans-6e"/>
      <use xlink:href="#DejaVuSans-6f" transform="translate(63.378906 0)"/>
      <use xlink:href="#DejaVuSans-64" transform="translate(124.560547 0)"/>
      <use xlink:href="#DejaVuSans-65" transform="translate(188.037109 0)"/>
     </g>
    </g>
    <g id="line2d_79">
     <path d="M 262.986177 11.257259 
L 272.986177 11.257259 
L 282.986177 11.257259 
" style="fill: none; stroke: #60a5fa; stroke-width: 2.3; stroke-linecap: square"/>
     <g>
      <use xlink:href="#m741c43f7ff" x="272.986177" y="11.257259" style="fill: #60a5fa; stroke: #60a5fa"/>
     </g>
    </g>
    <g id="text_29">
     <!-- deno -->
     <g style="fill: #e6e6e6" transform="translate(290.986177 14.757259) scale(0.1 -0.1)">
      <use xlink:href="#DejaVuSans-64"/>
      <use xlink:href="#DejaVuSans-65" transform="translate(63.476562 0)"/>
      <use xlink:href="#DejaVuSans-6e" transform="translate(125 0)"/>
      <use xlink:href="#DejaVuSans-6f" transform="translate(188.378906 0)"/>
     </g>
    </g>
   </g>
  </g>
 </g>
 <defs>
  <clipPath id="pa898f46773">
   <rect x="41.278365" y="64.029268" width="1071.721395" height="477.404023"/>
  </clipPath>
 </defs>
</svg>
